<?xml version="1.0" encoding="utf-8"?><svg xmlns="http://www.w3.org/2000/svg" xmlns:xlink="http://www.w3.org/1999/xlink"><symbol fill="none" viewBox="0 0 152 46" id="AppStore" xmlns="http://www.w3.org/2000/svg"><path d="M146.592 46H5.324C2.39 46 0 43.553 0 40.557V5.435C0 2.438 2.39 0 5.324 0h141.268C149.526 0 152 2.438 152 5.435v35.122c0 2.996-2.474 5.443-5.408 5.443z" fill="#A6A6A6"/><path d="M150.91 40.558c0 2.434-1.93 4.405-4.317 4.405H5.324c-2.385 0-4.322-1.971-4.322-4.405V5.434c0-2.433 1.937-4.41 4.322-4.41h141.268c2.388 0 4.317 1.977 4.317 4.41l.001 35.124z" fill="#000"/><path d="M33.922 22.752c-.033-3.707 2.97-5.51 3.108-5.594-1.701-2.533-4.338-2.88-5.265-2.907-2.214-.238-4.363 1.353-5.49 1.353-1.151 0-2.889-1.33-4.761-1.291-2.41.038-4.664 1.463-5.9 3.675-2.551 4.512-.649 11.142 1.796 14.788 1.223 1.786 2.651 3.78 4.521 3.71 1.83-.077 2.514-1.191 4.721-1.191 2.188 0 2.83 1.191 4.737 1.146 1.964-.032 3.2-1.794 4.38-3.596 1.413-2.047 1.98-4.063 2.003-4.166-.046-.016-3.813-1.485-3.85-5.927zm-3.603-10.9c.983-1.257 1.657-2.967 1.47-4.703-1.424.065-3.206 1.007-4.231 2.236-.908 1.083-1.718 2.859-1.51 4.529 1.6.122 3.244-.825 4.27-2.062zM60.4 36.23h-2.557l-1.4-4.495h-4.87L50.24 36.23h-2.49l4.824-15.304h2.979L60.4 36.23zm-4.38-6.381l-1.267-3.997c-.134-.408-.385-1.37-.755-2.883h-.045c-.148.651-.385 1.613-.712 2.883l-1.244 3.997h4.023zm16.785.727c0 1.877-.497 3.36-1.49 4.45-.889.97-1.993 1.453-3.312 1.453-1.423 0-2.445-.522-3.068-1.566h-.045v5.813h-2.4V28.827c0-1.18-.031-2.39-.09-3.633h2.111l.135 1.75h.044c.801-1.318 2.016-1.976 3.646-1.976 1.275 0 2.339.514 3.19 1.543.853 1.03 1.28 2.385 1.28 4.065zm-2.445.09c0-1.074-.237-1.96-.712-2.657-.52-.726-1.216-1.09-2.09-1.09-.592 0-1.13.203-1.61.602-.483.402-.798.928-.946 1.579a3.275 3.275 0 00-.111.747v1.84c0 .803.24 1.48.723 2.033.482.554 1.108.83 1.878.83.904 0 1.608-.357 2.11-1.068.505-.712.758-1.65.758-2.816zm14.872-.09c0 1.877-.497 3.36-1.491 4.45-.888.97-1.993 1.453-3.311 1.453-1.424 0-2.446-.522-3.067-1.566h-.046v5.813h-2.4V28.827c0-1.18-.03-2.39-.089-3.633h2.111l.134 1.75h.045c.8-1.318 2.014-1.976 3.646-1.976 1.273 0 2.337.514 3.19 1.543.851 1.03 1.278 2.385 1.278 4.065zm-2.446.09c0-1.074-.237-1.96-.713-2.657-.519-.726-1.213-1.09-2.088-1.09-.594 0-1.13.203-1.612.602-.482.402-.797.928-.944 1.579a3.338 3.338 0 00-.112.747v1.84c0 .803.242 1.48.721 2.033.482.552 1.108.83 1.88.83.905 0 1.608-.357 2.112-1.068.504-.712.756-1.65.756-2.816zm16.34 1.272c0 1.302-.443 2.36-1.331 3.178-.976.894-2.335 1.34-4.082 1.34-1.612 0-2.904-.317-3.883-.953l.556-2.044a6.476 6.476 0 003.47.978c.904 0 1.608-.21 2.114-.626.503-.416.754-.975.754-1.672 0-.62-.207-1.144-.623-1.569-.413-.424-1.103-.818-2.067-1.183-2.623-1-3.934-2.463-3.934-4.388 0-1.258.46-2.29 1.38-3.093.916-.803 2.139-1.205 3.668-1.205 1.363 0 2.496.243 3.4.727l-.6 1.999c-.844-.47-1.8-.704-2.868-.704-.844 0-1.504.213-1.977.636-.4.378-.6.84-.6 1.386 0 .604.229 1.105.688 1.498.4.363 1.126.757 2.18 1.181 1.289.53 2.236 1.15 2.845 1.86.607.71.91 1.596.91 2.654zm7.936-4.904h-2.646v5.358c0 1.363.467 2.043 1.401 2.043.429 0 .785-.038 1.066-.114l.067 1.862c-.473.18-1.096.272-1.867.272-.948 0-1.689-.296-2.224-.886-.532-.59-.8-1.582-.8-2.975v-5.562h-1.577v-1.84h1.577v-2.02l2.357-.728v2.748h2.646v1.842zm11.939 3.587c0 1.696-.476 3.089-1.424 4.178-.994 1.121-2.313 1.68-3.958 1.68-1.586 0-2.848-.537-3.789-1.611-.941-1.074-1.412-2.43-1.412-4.064 0-1.71.484-3.11 1.456-4.2.969-1.09 2.278-1.635 3.923-1.635 1.585 0 2.86.537 3.823 1.612.921 1.043 1.381 2.39 1.381 4.04zm-2.491.08c0-1.018-.213-1.891-.644-2.62-.503-.88-1.223-1.32-2.155-1.32-.965 0-1.698.441-2.201 1.32-.431.73-.644 1.617-.644 2.665 0 1.018.213 1.89.644 2.618.519.88 1.244 1.32 2.18 1.32.916 0 1.636-.448 2.155-1.343.442-.742.665-1.624.665-2.64zm10.292-3.351a4.084 4.084 0 00-.757-.067c-.844 0-1.497.325-1.956.977-.4.575-.601 1.302-.601 2.18v5.79h-2.399l.023-7.56c0-1.272-.031-2.43-.091-3.475h2.091l.088 2.112h.067c.253-.726.653-1.31 1.2-1.748.535-.395 1.112-.591 1.735-.591.222 0 .422.016.6.045v2.338zm10.735 2.84c0 .44-.028.81-.087 1.112h-7.202c.028 1.09.376 1.924 1.045 2.5.607.513 1.392.77 2.356.77 1.066 0 2.039-.173 2.913-.521l.376 1.702c-1.022.455-2.229.682-3.622.682-1.675 0-2.99-.504-3.947-1.51-.955-1.007-1.433-2.358-1.433-4.053 0-1.664.444-3.05 1.335-4.155.932-1.18 2.192-1.77 3.777-1.77 1.558 0 2.736.59 3.537 1.77.634.937.952 2.097.952 3.473zm-2.289-.636c.016-.727-.14-1.354-.466-1.885-.415-.682-1.054-1.022-1.913-1.022-.784 0-1.423.332-1.91 1-.4.53-.638 1.165-.711 1.906h5v.001zM55.227 11.51c0 1.354-.398 2.373-1.192 3.057-.735.631-1.78.948-3.133.948-.671 0-1.245-.03-1.726-.09V8.03a12.476 12.476 0 012.032-.156c1.29 0 2.26.286 2.916.86.734.647 1.102 1.572 1.102 2.777zm-1.245.034c0-.878-.227-1.55-.682-2.02-.455-.468-1.12-.702-1.994-.702-.371 0-.688.025-.95.078v5.622c.145.023.41.034.797.034.903 0 1.6-.257 2.09-.77.492-.513.74-1.26.74-2.242zm7.841 1.148c0 .834-.233 1.517-.699 2.053-.489.55-1.136.826-1.944.826-.78 0-1.4-.264-1.863-.793-.461-.528-.692-1.194-.692-1.996 0-.84.238-1.528.715-2.063.477-.535 1.12-.803 1.927-.803.78 0 1.406.263 1.88.791.45.513.676 1.175.676 1.985zm-1.224.04c0-.501-.105-.93-.316-1.288-.248-.432-.6-.648-1.058-.648-.474 0-.834.216-1.082.648-.212.358-.317.794-.317 1.31 0 .5.106.928.317 1.286.255.432.611.649 1.07.649.45 0 .804-.22 1.059-.66.218-.365.328-.797.328-1.298zm10.07-2.706l-1.661 5.421h-1.081l-.688-2.354a17.919 17.919 0 01-.427-1.751h-.021a13.054 13.054 0 01-.427 1.751l-.73 2.354H64.54l-1.562-5.42h1.213l.6 2.577c.145.609.265 1.19.36 1.74h.022c.088-.454.233-1.03.438-1.729l.753-2.588h.962l.721 2.533c.175.617.317 1.212.426 1.785h.033c.08-.558.2-1.153.36-1.785l.644-2.533h1.159zm6.116 5.422h-1.18v-3.105c0-.957-.356-1.435-1.07-1.435-.35 0-.632.13-.852.394a1.418 1.418 0 00-.327.93v3.215h-1.18v-3.871c0-.476-.015-.992-.043-1.551h1.037l.055.847h.033c.137-.263.342-.48.611-.654a1.96 1.96 0 011.07-.305c.495 0 .907.163 1.235.491.407.402.611 1 .611 1.796v3.248zm3.255 0h-1.179V7.539h1.18v7.909zm6.947-2.756c0 .834-.233 1.517-.699 2.053-.488.55-1.137.826-1.944.826-.78 0-1.4-.264-1.862-.793-.462-.528-.693-1.194-.693-1.996 0-.84.238-1.528.715-2.063.477-.535 1.12-.803 1.926-.803.78 0 1.406.263 1.88.791.451.513.677 1.175.677 1.985zm-1.224.04c0-.501-.106-.93-.317-1.288-.246-.432-.6-.648-1.057-.648-.475 0-.836.216-1.082.648-.212.358-.317.794-.317 1.31 0 .5.106.928.317 1.286.255.432.611.649 1.07.649.45 0 .803-.22 1.058-.66.22-.365.328-.797.328-1.298zm6.934 2.715h-1.06l-.087-.624h-.033c-.362.498-.88.748-1.55.748-.501 0-.907-.165-1.212-.492-.277-.296-.415-.665-.415-1.104 0-.662.27-1.167.814-1.516.543-.35 1.306-.521 2.289-.513v-.101c0-.715-.367-1.071-1.102-1.071a2.43 2.43 0 00-1.384.401l-.24-.79c.493-.313 1.102-.469 1.82-.469 1.388 0 2.084.748 2.084 2.242v1.997c0 .542.026.973.076 1.293zm-1.225-1.862v-.837c-1.301-.022-1.952.342-1.952 1.093 0 .283.074.495.226.636a.815.815 0 00.577.211c.259 0 .5-.083.721-.25a1.028 1.028 0 00.428-.854zm7.931 1.863h-1.047l-.056-.87h-.032c-.335.662-.904.993-1.705.993-.64 0-1.172-.257-1.594-.77-.422-.513-.633-1.178-.633-1.996 0-.877.228-1.588.688-2.131.445-.506.99-.759 1.638-.759.713 0 1.212.245 1.495.736h.023V7.539h1.18v6.448c0 .528.014 1.014.043 1.46zM98.18 13.16v-.903a1.81 1.81 0 00-.033-.38 1.378 1.378 0 00-.427-.73 1.146 1.146 0 00-.789-.296c-.44 0-.785.178-1.038.536-.251.358-.378.814-.378 1.372 0 .536.12.97.362 1.305.256.357.6.535 1.032.535.387 0 .697-.148.932-.446.227-.275.339-.606.339-.993zm11.313-.468c0 .834-.233 1.517-.699 2.053-.489.55-1.135.826-1.944.826-.778 0-1.399-.264-1.863-.793-.461-.528-.692-1.194-.692-1.996 0-.84.237-1.528.715-2.063.477-.535 1.119-.803 1.929-.803.778 0 1.405.263 1.878.791.45.513.676 1.175.676 1.985zm-1.222.04c0-.501-.106-.93-.317-1.288-.249-.432-.6-.648-1.059-.648-.473 0-.834.216-1.082.648-.212.358-.317.794-.317 1.31 0 .5.106.928.317 1.286.255.432.611.649 1.07.649.451 0 .805-.22 1.06-.66.217-.365.328-.797.328-1.298zm7.568 2.716h-1.179v-3.105c0-.957-.356-1.435-1.071-1.435-.35 0-.633.13-.851.394a1.409 1.409 0 00-.328.93v3.215h-1.181v-3.871c0-.476-.013-.992-.041-1.551h1.035l.056.847h.032a1.75 1.75 0 01.612-.654c.32-.203.677-.305 1.07-.305.495 0 .907.163 1.234.491.409.402.612 1 .612 1.796v3.248zm7.94-4.518h-1.299v2.633c0 .67.231 1.004.688 1.004.212 0 .387-.018.526-.056l.03.914c-.233.09-.539.134-.916.134-.466 0-.829-.144-1.091-.434-.264-.29-.394-.778-.394-1.462V10.93h-.776v-.903h.776v-.994l1.156-.356v1.349h1.299v.904h.001zm6.247 4.518h-1.182v-3.082c0-.972-.355-1.459-1.068-1.459-.547 0-.921.282-1.126.846a1.541 1.541 0 00-.055.433v3.26h-1.179V7.54h1.179v3.267h.022c.372-.594.904-.891 1.595-.891.488 0 .893.163 1.213.491.4.408.601 1.015.601 1.818v3.224zm6.445-2.967c0 .216-.016.398-.044.546h-3.539c.016.536.185.945.512 1.227.3.253.686.38 1.159.38.523 0 1.001-.085 1.431-.257l.185.838c-.504.223-1.096.334-1.782.334-.822 0-1.469-.247-1.937-.742-.471-.494-.704-1.158-.704-1.99 0-.818.217-1.499.655-2.041.457-.58 1.076-.87 1.856-.87.763 0 1.343.29 1.735.87.316.46.473 1.029.473 1.705zm-1.126-.312a1.649 1.649 0 00-.229-.925c-.205-.335-.517-.503-.939-.503-.385 0-.699.163-.939.491a1.844 1.844 0 00-.35.937h2.457z" fill="#fff"/></symbol><symbol fill="none" viewBox="0 0 156 46" id="GooglePlay" xmlns="http://www.w3.org/2000/svg"><path fill-rule="evenodd" clip-rule="evenodd" d="M150.22 46H5.78C2.594 46 0 43.407 0 40.25V5.75C0 2.581 2.594 0 5.78 0h144.44c3.183 0 5.78 2.581 5.78 5.75v34.5c0 3.157-2.597 5.75-5.78 5.75z" fill="#000"/><path fill-rule="evenodd" clip-rule="evenodd" d="M150.22.92c2.672 0 4.859 2.172 4.859 4.83v34.5c0 2.658-2.173 4.83-4.859 4.83H5.78c-2.672 0-4.86-2.173-4.86-4.83V5.75C.921 3.092 3.094.92 5.78.92h144.44zm0-.92H5.78C2.594 0 0 2.593 0 5.75v34.5C0 43.419 2.594 46 5.78 46h144.44c3.183 0 5.78-2.581 5.78-5.75V5.75c0-3.157-2.597-5.75-5.78-5.75z" fill="#A6A6A6"/><path d="M82.182 15.217c-1.042 0-1.92-.365-2.615-1.082a3.68 3.68 0 01-1.056-2.638c0-1.047.356-1.933 1.056-2.636.692-.717 1.57-1.08 2.612-1.08 1.03 0 1.908.363 2.614 1.08.7.726 1.056 1.612 1.056 2.636-.011 1.05-.367 1.936-1.056 2.636-.691.722-1.57 1.084-2.611 1.084zm-30.998 0a3.633 3.633 0 01-2.625-1.067c-.718-.706-1.082-1.598-1.082-2.65 0-1.053.364-1.945 1.082-2.65.708-.708 1.592-1.067 2.625-1.067.506 0 .996.1 1.467.304.462.198.838.468 1.116.797l.07.084-.779.762-.08-.094c-.439-.522-1.027-.777-1.805-.777-.695 0-1.3.246-1.8.734-.502.49-.757 1.133-.757 1.91 0 .777.255 1.42.758 1.91a2.496 2.496 0 001.799.734c.74 0 1.363-.247 1.848-.734.287-.287.465-.689.528-1.196h-2.494v-1.073h3.565l.014.098c.026.18.052.367.052.539 0 .99-.299 1.79-.89 2.38-.672.7-1.55 1.056-2.612 1.056zm41.215-.152h-1.1l-3.366-5.383.029.969v4.41h-1.1V7.936h1.255l.034.055 3.166 5.07-.03-.966v-4.16h1.111v7.13zm-18.477 0H72.81V9.008h-1.932V7.935h4.974v1.073H73.92v6.057h.002zm-3.951 0H68.86v-7.13h1.11v7.13zm-6.242 0h-1.111V9.008h-1.931V7.935h4.973v1.073h-1.931v6.057zm-3.746-.012h-4.258V7.935h4.258v1.073h-3.145v1.956h2.838v1.06h-2.838v1.957h3.145v1.072zm20.4-1.655a2.454 2.454 0 001.799.746c.72 0 1.308-.244 1.8-.746.487-.487.734-1.127.734-1.898 0-.772-.247-1.414-.732-1.899a2.463 2.463 0 00-1.8-.745c-.72 0-1.308.243-1.796.745-.488.488-.735 1.127-.735 1.899 0 .771.244 1.414.73 1.898z" fill="#fff"/><path fill-rule="evenodd" clip-rule="evenodd" d="M78.407 25.019c-2.712 0-4.91 2.056-4.91 4.892 0 2.81 2.213 4.893 4.91 4.893 2.712 0 4.91-2.071 4.91-4.893 0-2.836-2.198-4.892-4.91-4.892zm0 7.846c-1.483 0-2.76-1.228-2.76-2.965 0-1.764 1.28-2.966 2.76-2.966 1.484 0 2.761 1.202 2.761 2.966.003 1.749-1.277 2.965-2.76 2.965zm-10.713-7.846c-2.712 0-4.91 2.056-4.91 4.892 0 2.81 2.212 4.893 4.91 4.893 2.712 0 4.91-2.071 4.91-4.893 0-2.836-2.2-4.892-4.91-4.892zm0 7.846c-1.484 0-2.76-1.228-2.76-2.965 0-1.764 1.28-2.966 2.76-2.966 1.484 0 2.76 1.202 2.76 2.966 0 1.749-1.276 2.965-2.76 2.965zm-12.748-6.352v2.07h4.974c-.153 1.162-.537 2.02-1.125 2.607-.73.729-1.854 1.52-3.837 1.52-3.057 0-5.447-2.466-5.447-5.52 0-3.055 2.39-5.521 5.447-5.521 1.65 0 2.852.651 3.745 1.483l1.47-1.469c-1.24-1.187-2.89-2.096-5.204-2.096-4.193 0-7.711 3.413-7.711 7.591 0 4.19 3.515 7.591 7.711 7.591 2.264 0 3.963-.74 5.306-2.133 1.37-1.368 1.803-3.299 1.803-4.856 0-.484-.038-.92-.115-1.29h-7.02c.003-.003.003.023.003.023zm52.143 1.611c-.411-1.098-1.65-3.117-4.193-3.117-2.52 0-4.615 1.982-4.615 4.893 0 2.747 2.072 4.892 4.859 4.892 2.238 0 3.541-1.368 4.078-2.17l-1.662-1.113c-.551.817-1.317 1.353-2.405 1.353-1.099 0-1.868-.499-2.379-1.483l6.546-2.71c0 .003-.229-.545-.229-.545zm-6.676 1.635c-.051-1.89 1.47-2.85 2.557-2.85.859 0 1.573.421 1.817 1.035l-4.374 1.815zm-5.317 4.74h2.15V20.127h-2.15V34.5zm-3.53-8.394h-.078c-.485-.576-1.406-1.098-2.583-1.098-2.442 0-4.692 2.148-4.692 4.907 0 2.747 2.239 4.87 4.692 4.87 1.163 0 2.098-.525 2.583-1.113h.078v.702c0 1.867-1 2.874-2.61 2.874-1.316 0-2.134-.946-2.467-1.738l-1.868.78c.536 1.29 1.968 2.888 4.333 2.888 2.52 0 4.655-1.483 4.655-5.099V25.3h-2.032v.805h-.011zm-2.469 6.76c-1.483 0-2.723-1.239-2.723-2.951 0-1.727 1.24-2.977 2.724-2.977 1.469 0 2.608 1.265 2.608 2.977.015 1.712-1.136 2.951-2.609 2.951zm28.056-12.739h-5.14V34.5h2.15v-5.444h2.993c2.379 0 4.718-1.723 4.718-4.459 0-2.736-2.33-4.47-4.721-4.47zm.063 6.923h-3.056v-4.933h3.056c1.61 0 2.52 1.328 2.52 2.467 0 1.127-.921 2.466-2.52 2.466zm13.274-2.056c-1.562 0-3.172.69-3.837 2.197l1.905.791c.411-.792 1.162-1.061 1.957-1.061 1.114 0 2.239.665 2.265 1.853v.152c-.385-.218-1.229-.551-2.239-.551-2.057 0-4.144 1.124-4.144 3.232 0 1.93 1.688 3.169 3.567 3.169 1.444 0 2.239-.651 2.735-1.405h.078v1.112h2.072v-5.506c0-2.564-1.906-3.983-4.359-3.983zm-.27 7.872c-.703 0-1.688-.344-1.688-1.228 0-1.112 1.229-1.534 2.276-1.534.947 0 1.395.204 1.957.485a2.586 2.586 0 01-2.545 2.277zm12.188-7.565l-2.468 6.234h-.077l-2.557-6.234h-2.314l3.837 8.715-2.186 4.844h2.238l5.903-13.56h-2.376zm-19.348 9.2h2.149V20.126h-2.149V34.5z" fill="#fff"/><path fill-rule="evenodd" clip-rule="evenodd" d="M12.008 8.663c-.333.359-.526.907-.526 1.624v25.429c0 .717.193 1.264.537 1.608l.09.078 14.257-14.248v-.318l-14.27-14.25-.088.077z" fill="url(#ba)"/><path fill-rule="evenodd" clip-rule="evenodd" d="M31.109 27.919l-4.756-4.752v-.333l4.756-4.752.103.063 5.625 3.195c1.61.906 1.61 2.403 0 3.32l-5.625 3.196-.103.063z" fill="url(#bb)"/><path fill-rule="evenodd" clip-rule="evenodd" d="M31.213 27.855L26.354 23 12.008 37.336c.525.562 1.406.626 2.39.078l16.815-9.559z" fill="url(#bc)"/><path fill-rule="evenodd" clip-rule="evenodd" d="M31.213 18.145L14.398 8.6c-.984-.562-1.868-.485-2.39.077L26.354 23l4.859-4.855z" fill="url(#bd)"/><path opacity=".2" fill-rule="evenodd" clip-rule="evenodd" d="M31.11 27.752l-16.7 9.481c-.933.536-1.765.499-2.302.012l-.088.088.088.078c.537.484 1.37.525 2.302-.012l16.815-9.544-.115-.103z" fill="#000"/><path opacity=".12" fill-rule="evenodd" clip-rule="evenodd" d="M36.838 24.494l-5.742 3.258.103.103 5.625-3.195c.806-.458 1.202-1.06 1.202-1.66-.048.55-.459 1.073-1.188 1.494z" fill="#000"/><path opacity=".25" fill-rule="evenodd" clip-rule="evenodd" d="M14.398 8.767l22.44 12.739c.729.41 1.139.946 1.202 1.494 0-.6-.396-1.201-1.202-1.66L14.398 8.6c-1.61-.92-2.916-.151-2.916 1.687v.166c0-1.84 1.306-2.595 2.916-1.686z" fill="#fff"/><defs><linearGradient id="ba" x1="25.087" y1="10.012" x2="2.251" y2="16.101" gradientUnits="userSpaceOnUse"><stop stop-color="#00A0FF"/><stop offset=".007" stop-color="#00A1FF"/><stop offset=".26" stop-color="#00BEFF"/><stop offset=".512" stop-color="#00D2FF"/><stop offset=".76" stop-color="#00DFFF"/><stop offset="1" stop-color="#00E3FF"/></linearGradient><linearGradient id="bb" x1="38.937" y1="23" x2="11.091" y2="23" gradientUnits="userSpaceOnUse"><stop stop-color="#FFE000"/><stop offset=".409" stop-color="#FFBD00"/><stop offset=".775" stop-color="orange"/><stop offset="1" stop-color="#FF9C00"/></linearGradient><linearGradient id="bc" x1="28.571" y1="25.642" x2="10.256" y2="56.49" gradientUnits="userSpaceOnUse"><stop stop-color="#FF3A44"/><stop offset="1" stop-color="#C31162"/></linearGradient><linearGradient id="bd" x1="8.395" y1=".206" x2="16.566" y2="13.983" gradientUnits="userSpaceOnUse"><stop stop-color="#32A071"/><stop offset=".069" stop-color="#2DA771"/><stop offset=".476" stop-color="#15CF74"/><stop offset=".801" stop-color="#06E775"/><stop offset="1" stop-color="#00F076"/></linearGradient></defs></symbol><symbol fill="none" viewBox="0 0 48 48" id="bag-w" xmlns="http://www.w3.org/2000/svg"><rect width="48" height="48" rx="8" fill="#fff"/><path clip-rule="evenodd" d="M28.513 33.5h-8.348c-3.066 0-5.418-1.108-4.75-5.565l.778-6.042c.412-2.224 1.83-3.075 3.075-3.075h10.179c1.263 0 2.6.915 3.076 3.075l.778 6.042c.567 3.954-1.721 5.565-4.788 5.565z" stroke="#ED5E4C" stroke-width="1.5" stroke-linecap="round" stroke-linejoin="round"/><path d="M28.651 18.598a4.32 4.32 0 00-4.32-4.32v0a4.32 4.32 0 00-4.339 4.32v0m7.305 4.504h-.046m-5.786 0h-.046" stroke="#ED5E4C" stroke-width="1.5" stroke-linecap="round" stroke-linejoin="round"/></symbol><symbol fill="none" viewBox="0 0 48 48" id="clock" xmlns="http://www.w3.org/2000/svg"><rect width="48" height="48" rx="8" fill="#ED5E4C"/><path clip-rule="evenodd" d="M28.334 14.75h-8.669c-3.021 0-4.915 2.139-4.915 5.166v8.168c0 3.027 1.884 5.166 4.915 5.166h8.668c3.031 0 4.917-2.139 4.917-5.166v-8.168c0-3.027-1.886-5.166-4.916-5.166z" stroke="#fff" stroke-width="2" stroke-linecap="round" stroke-linejoin="round"/><path d="M27.391 26.018L24 23.995v-4.361" stroke="#fff" stroke-width="2" stroke-linecap="round" stroke-linejoin="round"/></symbol><symbol fill="none" viewBox="0 0 48 48" id="date" xmlns="http://www.w3.org/2000/svg"><rect width="48" height="48" rx="8" fill="#ED5E4C"/><path d="M15.092 21.404h17.824m-4.473 3.906h.01m-4.448 0h.01m-4.457 0h.01m8.875 3.886h.01m-4.448 0h.01m-4.457 0h.01M28.043 14v3.29M19.965 14v3.29" stroke="#fff" stroke-width="2" stroke-linecap="round" stroke-linejoin="round"/><path clip-rule="evenodd" d="M28.238 15.58h-8.467c-2.937 0-4.771 1.635-4.771 4.642v9.05C15 32.326 16.834 34 19.771 34h8.458C31.175 34 33 32.355 33 29.347v-9.125c.01-3.007-1.816-4.643-4.762-4.643z" stroke="#fff" stroke-width="2" stroke-linecap="round" stroke-linejoin="round"/></symbol><symbol fill="none" viewBox="0 0 48 48" id="email" xmlns="http://www.w3.org/2000/svg"><rect width="48" height="48" rx="8" fill="#ED5E4C"/><path d="M29.903 20.851l-4.443 3.613c-.84.666-2.02.666-2.86 0l-4.48-3.613" stroke="#fff" stroke-width="1.5" stroke-linecap="round" stroke-linejoin="round"/><path clip-rule="evenodd" d="M28.909 33C31.95 33.008 34 30.51 34 27.438V20.57c0-3.071-2.05-5.57-5.091-5.57H19.09C16.05 15 14 17.499 14 20.57v6.868c0 3.072 2.05 5.57 5.091 5.562h9.818z" stroke="#fff" stroke-width="2" stroke-linecap="round" stroke-linejoin="round"/></symbol><symbol fill="none" viewBox="0 0 48 48" id="grid-w" xmlns="http://www.w3.org/2000/svg"><rect width="48" height="48" rx="8" fill="#fff"/><path clip-rule="evenodd" d="M15 18.5c0-2.625.028-3.5 3.5-3.5s3.5.875 3.5 3.5.011 3.5-3.5 3.5-3.5-.875-3.5-3.5zm11 0c0-2.625.028-3.5 3.5-3.5s3.5.875 3.5 3.5.011 3.5-3.5 3.5-3.5-.875-3.5-3.5zm-11 11c0-2.625.028-3.5 3.5-3.5s3.5.875 3.5 3.5.011 3.5-3.5 3.5-3.5-.875-3.5-3.5zm11 0c0-2.625.028-3.5 3.5-3.5s3.5.875 3.5 3.5.011 3.5-3.5 3.5-3.5-.875-3.5-3.5z" stroke="#ED5E4C" stroke-width="1.5" stroke-linecap="round" stroke-linejoin="round"/></symbol><symbol fill="none" viewBox="0 0 48 48" id="phone" xmlns="http://www.w3.org/2000/svg"><rect width="48" height="48" rx="8" fill="#ED5E4C"/><path clip-rule="evenodd" d="M23.532 24.472c3.989 3.988 4.894-.625 7.434 1.913 2.448 2.448 3.856 2.938.753 6.04-.388.312-2.857 4.07-11.534-4.605-8.678-8.676-4.923-11.148-4.611-11.536 3.11-3.11 3.592-1.695 6.04.753 2.54 2.54-2.071 3.447 1.918 7.435z" stroke="#fff" stroke-width="2" stroke-linecap="round" stroke-linejoin="round"/></symbol><symbol fill="none" viewBox="0 0 40 40" id="slider-next" xmlns="http://www.w3.org/2000/svg"><rect width="40" height="40" rx="8" fill="#fff"/><path d="M16.5 13l7 7-7 7" stroke="#ED5E4C" stroke-width="2" stroke-linecap="round" stroke-linejoin="round"/></symbol><symbol fill="none" viewBox="0 0 40 40" id="slider-prev" xmlns="http://www.w3.org/2000/svg"><rect width="40" height="40" rx="8" transform="matrix(-1 0 0 1 40 0)" fill="#fff"/><path d="M23.5 13l-7 7 7 7" stroke="#ED5E4C" stroke-width="2" stroke-linecap="round" stroke-linejoin="round"/></symbol><symbol fill="none" viewBox="0 0 48 48" id="stats" xmlns="http://www.w3.org/2000/svg"><rect width="48" height="48" rx="8" fill="#ED5E4C"/><path clip-rule="evenodd" d="M29.279 25.889c.674 0 1.24.556 1.138 1.223-.606 3.92-3.962 6.83-8.009 6.83a8.107 8.107 0 01-8.107-8.106c0-3.688 2.802-7.124 5.957-7.901.678-.167 1.372.31 1.372 1.007 0 4.729.16 5.952 1.057 6.617.898.665 1.954.33 6.592.33z" stroke="#fff" stroke-width="2" stroke-linecap="round" stroke-linejoin="round"/><path clip-rule="evenodd" d="M33.694 21.951c.054-3.038-3.678-7.934-8.225-7.85a.678.678 0 00-.653.653c-.114 2.498.04 5.735.127 7.202a.89.89 0 00.84.843c1.509.086 4.864.204 7.326-.169a.695.695 0 00.585-.679z" stroke="#fff" stroke-width="2" stroke-linecap="round" stroke-linejoin="round"/></symbol><symbol fill="none" viewBox="0 0 48 48" id="stats-w" xmlns="http://www.w3.org/2000/svg"><rect width="48" height="48" rx="8" fill="#fff"/><path clip-rule="evenodd" d="M29.279 25.889c.674 0 1.24.556 1.138 1.223-.606 3.92-3.962 6.83-8.009 6.83a8.107 8.107 0 01-8.107-8.106c0-3.688 2.802-7.124 5.957-7.901.678-.167 1.372.31 1.372 1.007 0 4.729.16 5.952 1.057 6.617.898.665 1.954.33 6.592.33z" stroke="#ED5E4C" stroke-width="1.5" stroke-linecap="round" stroke-linejoin="round"/><path clip-rule="evenodd" d="M33.694 21.951c.054-3.038-3.678-7.934-8.225-7.85a.678.678 0 00-.653.653c-.114 2.498.04 5.735.127 7.202a.89.89 0 00.84.843c1.509.086 4.864.204 7.326-.169a.695.695 0 00.585-.679z" stroke="#ED5E4C" stroke-width="1.5" stroke-linecap="round" stroke-linejoin="round"/></symbol><symbol fill="none" viewBox="0 0 40 40" id="team" xmlns="http://www.w3.org/2000/svg"><path clip-rule="evenodd" d="M19.974 25.577c-6.446 0-11.95.975-11.95 4.878s5.47 4.913 11.95 4.913c6.446 0 11.95-.977 11.95-4.878 0-3.902-5.469-4.913-11.95-4.913zm.001-5.567a7.66 7.66 0 10-7.66-7.66 7.634 7.634 0 007.606 7.66h.054z" stroke="#fff" stroke-width="2" stroke-linecap="round" stroke-linejoin="round"/></symbol><symbol fill="none" viewBox="0 0 88 88" id="team-ava" xmlns="http://www.w3.org/2000/svg"><circle cx="44" cy="44" r="44" fill="#ED5E4C"/><path clip-rule="evenodd" d="M43.975 49.577c-6.446 0-11.951.975-11.951 4.878s5.47 4.913 11.95 4.913c6.447 0 11.95-.977 11.95-4.878 0-3.902-5.468-4.913-11.95-4.913zm0-5.567a7.66 7.66 0 10-7.66-7.66 7.634 7.634 0 007.606 7.66h.054z" stroke="#fff" stroke-width="2" stroke-linecap="round" stroke-linejoin="round"/></symbol><symbol fill="none" viewBox="0 0 8 8" id="team-ava-ball" xmlns="http://www.w3.org/2000/svg"><circle cx="4" cy="4" r="4" fill="#ED5E4C"/></symbol><symbol fill="none" viewBox="0 0 104 107" id="team__item-bg" xmlns="http://www.w3.org/2000/svg"><circle cx="52" cy="55" r="51" stroke="#EDEDED" stroke-width="2"/><circle cx="52" cy="4" r="4" fill="#ED5E4C"/></symbol><symbol fill="none" viewBox="0 0 70 70" id="tech-apptask" xmlns="http://www.w3.org/2000/svg"><rect width="70" height="70" rx="8" fill="#fff"/><path fill-rule="evenodd" clip-rule="evenodd" d="M34.098 50.613c7.783 0 14.09-6.39 14.09-14.275 0-2.767-.776-5.349-2.12-7.536.005.132.008.264.008.397 0 5.914-4.732 10.707-10.569 10.707-3.594 0-6.77-1.818-8.678-4.596-.82-1.194-1.469-2.555-1.693-4.046-.382-2.549-1.532-4.835-3.31-6.5.192.684.295 1.405.295 2.15 0 .983-.106 1.954-.503 2.79-.958 2.018-1.61 4.24-1.61 6.633 0 7.884 6.309 14.275 14.09 14.275v.001z" fill="url(#qa)"/><path fill-rule="evenodd" clip-rule="evenodd" d="M36.692 36.101c4.157 0 7.525-3.422 7.525-7.644a7.77 7.77 0 00-.242-1.933 9.54 9.54 0 01-.19.544 3.02 3.02 0 01-.115.039l-.04.013-.026.009a7.67 7.67 0 00-1.075-1.798c.073-.43.186-.846.336-1.247a7.535 7.535 0 00-2.705-2.413 7.44 7.44 0 00-7.002.035 7.538 7.538 0 00-2.682 2.44c.146.402.256.821.325 1.252a7.674 7.674 0 00-1.029 1.748l-.084-.027-.04-.012a6.657 6.657 0 01-.114-.038 9.013 9.013 0 01-.154-.432 7.782 7.782 0 00-.214 1.819c0 4.222 3.37 7.644 7.525 7.644l.001.001z" fill="#FEFEFE"/><path fill-rule="evenodd" clip-rule="evenodd" d="M34.45 45.495c7.197 0 13.033-5.114 13.033-11.422 0-1.849-.501-3.595-1.39-5.14l.003.267c0 5.916-4.731 10.711-10.568 10.711-3.595 0-6.77-1.819-8.68-4.597-.82-1.195-1.468-2.556-1.692-4.048-.382-2.55-1.532-4.836-3.31-6.502 2.113 6.515-.43 5.283-.43 10.736 0 6.309 5.835 9.995 13.033 9.995z" fill="url(#qb)"/><path fill-rule="evenodd" clip-rule="evenodd" d="M24.746 29.622c-.547-1.884-1.536-3.56-2.9-4.858.193.7.29 1.423.29 2.15 0 .981-.106 1.953-.496 2.787a19.32 19.32 0 00-.544 1.279c.263.906.469 2.026.382 3.177.982-2.52 2.226-3.842 3.27-4.535h-.002z" fill="#E7EAEF" stroke="#EBECEC" stroke-width=".2" stroke-miterlimit="22.926"/><path fill-rule="evenodd" clip-rule="evenodd" d="M45.01 19.387c.16 3.29-.163 6.14-.86 7.97a7.618 7.618 0 00-.164-.827c.42-1.328.67-3.085.72-5.099a6.792 6.792 0 00-1.831 2.671 7.63 7.63 0 00-1.13-1.292 7.598 7.598 0 013.265-3.422v-.001zm-16.7 0c-.162 3.322.169 6.194.879 8.021l.035.012a7.63 7.63 0 01.147-.778c-.442-1.34-.706-3.139-.757-5.21a6.792 6.792 0 011.854 2.732 7.58 7.58 0 011.127-1.313 7.599 7.599 0 00-3.285-3.464z" fill="url(#qc)"/><path fill-rule="evenodd" clip-rule="evenodd" d="M46.093 28.975v.074l.001.004v.188c0 5.887-4.735 10.66-10.578 10.66-.054 0-.108 0-.164-.002h-.006a4.79 4.79 0 01-.16-.003h-.01l-.159-.007h-.008l-.158-.009h-.01l-.159-.012h-.001l-.157-.013-.013-.002-.15-.015-.015-.002-.15-.017-.017-.002a10.34 10.34 0 01-.147-.02l-.016-.002a9.883 9.883 0 01-.143-.022l-.015-.002a3.899 3.899 0 01-.144-.024l-.018-.003-.141-.026-.023-.004-.139-.027-.022-.005a3.826 3.826 0 01-.14-.03l-.017-.004-.133-.031-.023-.005-.132-.033-.026-.007a9.294 9.294 0 01-.129-.033l-.034-.01a10.199 10.199 0 01-.123-.035l-.033-.009-.122-.035-.03-.01-.117-.037-.036-.012a9.688 9.688 0 01-.116-.038l-.035-.012-.117-.04-.037-.014a16.03 16.03 0 01-.116-.042v.003c0 3.129 2.517 5.664 5.621 5.664.507 0 1.29-.156 2.245-.424 4.573-1.768 7.763-5.758 7.763-10.398 0-1.84-.503-3.577-1.393-5.115h.002z" fill="#F45424"/><path fill-rule="evenodd" clip-rule="evenodd" d="M38.068 50.03c5.849-1.728 10.12-7.194 10.12-13.67 0-2.753-.773-5.323-2.11-7.501v.37c0-.084-.001-.17-.004-.254l.001-.122-.005-.009.004.131a10.2 10.2 0 011.39 5.124c0 3.895-2.234 7.332-5.642 9.386a6.47 6.47 0 01-.82 3.893 6.36 6.36 0 01-2.933 2.652z" fill="url(#qd)"/><path fill-rule="evenodd" clip-rule="evenodd" d="M36.692 36.101c4.157 0 7.525-3.422 7.525-7.644a7.77 7.77 0 00-.242-1.933 9.54 9.54 0 01-.19.544 3.02 3.02 0 01-.115.039l-.04.013-.026.009a7.67 7.67 0 00-1.075-1.798c.073-.43.186-.846.336-1.247a7.535 7.535 0 00-2.705-2.413 7.44 7.44 0 00-7.002.035 7.538 7.538 0 00-2.682 2.44c.146.402.256.821.325 1.252a7.674 7.674 0 00-1.029 1.748l-.084-.027-.04-.012a6.657 6.657 0 01-.114-.038 9.013 9.013 0 01-.154-.432 7.782 7.782 0 00-.214 1.819c0 4.222 3.37 7.644 7.525 7.644l.001.001z" fill="url(#qe)"/><path fill-rule="evenodd" clip-rule="evenodd" d="M42.04 27.468a7.33 7.33 0 00-.297-.442c.064-.412.162-.812.292-1.196-1.18-1.897-3.14-3.14-5.36-3.14-2.24 0-4.219 1.268-5.396 3.199.128.387.223.788.282 1.202a7.11 7.11 0 00-.21.313l4.227 5.588h2.326l4.135-5.524z" fill="url(#qf)"/><path fill-rule="evenodd" clip-rule="evenodd" d="M42.552 25.287a7.079 7.079 0 00-5.867 4.05 7.08 7.08 0 00-5.931-4.055l.022.13a7.626 7.626 0 00-1.033 1.74 8.238 8.238 0 01-.084-.026l-.04-.012-.07-.023c.404 3.612 3.445 6.42 7.136 6.42 3.723 0 6.784-2.856 7.147-6.511l-.03.076a2.466 2.466 0 01-.114.038l-.04.013-.028.009a7.63 7.63 0 00-1.078-1.79l.01-.059z" fill="url(#qg)"/><path fill-rule="evenodd" clip-rule="evenodd" d="M43.578 27.775a7.1 7.1 0 00-.654-.031c-2.768 0-5.153 1.614-6.232 3.936-1.08-2.322-3.465-3.936-6.234-3.936-.22 0-.438.01-.653.031a7.214 7.214 0 00-.063.94c0 3.866 3.111 6.998 6.95 6.998 3.837 0 6.95-3.133 6.95-6.997a7.182 7.182 0 00-.064-.94z" fill="#FEFEFE"/><defs><linearGradient id="qa" x1="14.948" y1="29.004" x2="49.368" y2="61.131" gradientUnits="userSpaceOnUse"><stop stop-color="#FB9006"/><stop offset="1" stop-color="#FB9006"/></linearGradient><linearGradient id="qb" x1="22.186" y1="34.416" x2="37.071" y2="46.072" gradientUnits="userSpaceOnUse"><stop stop-color="#FF6E00"/><stop offset="1" stop-color="#F87A0A"/></linearGradient><linearGradient id="qc" x1="36.771" y1="28.451" x2="36.771" y2="20.892" gradientUnits="userSpaceOnUse"><stop stop-color="#FD6D47"/><stop offset="1" stop-color="#E04922"/></linearGradient><linearGradient id="qd" x1="46.529" y1="29.972" x2="37.896" y2="49.955" gradientUnits="userSpaceOnUse"><stop stop-color="#EF4206"/><stop offset=".329" stop-color="#F57C17"/><stop offset="1" stop-color="#FCB729"/></linearGradient><linearGradient id="qf" x1="36.659" y1="27.841" x2="36.659" y2="17.959" gradientUnits="userSpaceOnUse"><stop stop-color="#FB9006"/><stop offset="1" stop-color="#FEFEFE"/></linearGradient><radialGradient id="qe" cx="0" cy="0" r="1" gradientUnits="userSpaceOnUse" gradientTransform="matrix(7.52561 0 0 7.64472 36.692 28.457)"><stop stop-color="#F3BC57"/><stop offset=".2" stop-color="#F49451"/><stop offset="1" stop-color="#F46D4B"/></radialGradient><radialGradient id="qg" cx="0" cy="0" r="1" gradientUnits="userSpaceOnUse" gradientTransform="matrix(5.31958 0 0 6.05512 36.834 31.291)"><stop stop-color="#FED337"/><stop offset="1" stop-color="#FC2D27"/></radialGradient></defs></symbol><symbol fill="none" viewBox="0 0 70 70" id="tech-figma" xmlns="http://www.w3.org/2000/svg"><rect width="70" height="70" rx="8" fill="#fff"/><path d="M29.25 51c2.898 0 5.25-2.39 5.25-5.333v-5.334h-5.25c-2.896 0-5.248 2.39-5.248 5.334 0 2.944 2.352 5.333 5.249 5.333z" fill="#0ACF83"/><path d="M24.002 35c0-2.944 2.352-5.333 5.249-5.333H34.5v10.666h-5.25c-2.896 0-5.248-2.39-5.248-5.333z" fill="#A259FF"/><path d="M24.002 24.333c0-2.944 2.352-5.333 5.249-5.333H34.5v10.667h-5.25c-2.896 0-5.248-2.39-5.248-5.334z" fill="#F24E1E"/><path d="M34.5 19h5.249c2.897 0 5.249 2.39 5.249 5.333 0 2.944-2.352 5.334-5.249 5.334H34.5V19z" fill="#FF7262"/><path d="M44.998 35c0 2.944-2.352 5.333-5.249 5.333-2.898 0-5.249-2.39-5.249-5.333 0-2.944 2.352-5.333 5.249-5.333s5.249 2.389 5.249 5.333z" fill="#1ABCFE"/></symbol><symbol fill="none" viewBox="0 0 70 70" id="tech-flutter" xmlns="http://www.w3.org/2000/svg"><rect width="70" height="70" rx="8" fill="#fff"/><path d="M38.048 19.01L48 19 31.303 35.627l-4.352 4.311L22 35l16.048-15.988zm-.093 14.847c.13-.17.367-.086.547-.108l9.49.002-8.649 8.608-4.977-4.928 3.59-3.574z" fill="#44D1FD"/><path d="M29.406 42.368l4.961-4.937 4.977 4.928.02.022-4.996 4.932-4.962-4.945z" fill="#1FBCFD"/><path d="M34.367 47.313l4.996-4.932 8.632 8.608c-3.252.007-6.502-.003-9.752.005-.185.04-.3-.128-.417-.232l-3.459-3.45z" fill="#08589C"/></symbol><symbol fill="none" viewBox="0 0 70 70" id="tech-gitlab" xmlns="http://www.w3.org/2000/svg"><rect width="70" height="70" rx="8" fill="#fff"/><g clip-path="url(#ta)"><path d="M34.51 51.006l6.44-19.654H28.07l6.44 19.654z" fill="#E24329"/><path d="M34.51 51.006L28.07 31.35h-9.025L34.51 51.006z" fill="#FC6D26"/><path d="M19.046 31.351l-1.957 5.973a1.312 1.312 0 00.484 1.479l16.938 12.203-15.465-19.654z" fill="#FCA326"/><path d="M19.045 31.352h9.025l-3.878-11.838c-.2-.61-1.069-.61-1.268 0l-3.88 11.838z" fill="#E24329"/><path d="M34.51 51.006l6.44-19.655h9.025L34.51 51.006z" fill="#FC6D26"/><path d="M49.975 31.351l1.957 5.973a1.312 1.312 0 01-.484 1.479L34.51 51.005l15.465-19.654z" fill="#FCA326"/><path d="M49.977 31.352H40.95l3.879-11.838c.2-.61 1.069-.61 1.268 0l3.879 11.838z" fill="#E24329"/></g><defs><clipPath id="ta"><path fill="#fff" transform="translate(17 19)" d="M0 0h35v32H0z"/></clipPath></defs></symbol><symbol fill="none" viewBox="0 0 70 70" id="tech-laravel" xmlns="http://www.w3.org/2000/svg"><rect width="70" height="70" rx="8" fill="#fff"/><path fill-rule="evenodd" clip-rule="evenodd" d="M49.983 26.24a.525.525 0 01.017.13v6.869a.515.515 0 01-.065.25.492.492 0 01-.178.184l-5.564 3.32v6.578a.505.505 0 01-.241.435l-11.615 6.927c-.026.016-.055.026-.084.037-.011.003-.021.01-.033.013a.471.471 0 01-.248 0c-.013-.003-.025-.01-.038-.016-.026-.01-.054-.019-.08-.034l-11.611-6.927a.492.492 0 01-.178-.184.515.515 0 01-.065-.25V22.964c0-.045.006-.089.017-.131.003-.015.012-.028.017-.042.009-.027.017-.054.03-.078.01-.016.023-.03.034-.044.014-.02.027-.041.043-.059.014-.014.032-.025.048-.037.017-.015.033-.031.053-.043l5.806-3.464a.472.472 0 01.484 0l5.806 3.464h.001c.02.012.036.028.053.042.016.013.034.024.047.038.017.018.03.039.044.059.01.015.024.028.033.044.014.025.021.051.031.078.005.014.013.027.017.042a.52.52 0 01.017.131v12.87l4.838-2.886v-6.58c0-.043.006-.088.017-.13.004-.015.012-.028.017-.042.01-.027.018-.053.031-.078.01-.016.023-.03.033-.044.014-.02.027-.041.043-.059.014-.014.032-.025.048-.037.018-.015.034-.031.053-.043l5.807-3.464a.47.47 0 01.483 0l5.807 3.464c.02.012.036.028.054.042.015.013.033.024.047.038.017.018.029.039.043.059.011.015.024.028.033.044.014.024.021.051.031.078.006.014.014.027.017.042zm-.95 6.709v-5.712L47 28.45l-2.807 1.675v5.712l4.84-2.887zM43.225 43.28v-5.715l-2.76 1.635-7.885 4.662v5.77l10.646-6.35zM20.968 23.832v19.45l10.644 6.35v-5.769l-5.56-3.26-.002-.002-.003-.001c-.018-.012-.034-.028-.052-.042-.015-.012-.032-.022-.046-.036v-.002c-.017-.016-.027-.035-.04-.053-.013-.016-.027-.03-.037-.048v-.002c-.011-.019-.018-.042-.026-.063-.008-.019-.018-.036-.023-.056-.006-.025-.007-.05-.01-.074-.002-.019-.007-.038-.007-.056V26.719L23 25.044l-2.032-1.211zm5.323-3.752l-4.838 2.885 4.837 2.886 4.837-2.886-4.837-2.885zm2.515 18.007l2.807-1.674v-12.58l-2.032 1.211-2.807 1.675v12.58l2.032-1.212zM43.71 23.485l-4.837 2.885 4.837 2.885 4.836-2.886-4.836-2.884zm-.484 6.639l-2.807-1.675-2.032-1.212v5.712l2.806 1.674 2.033 1.213v-5.712zm-11.13 12.871l7.095-4.197 3.546-2.097-4.833-2.883-5.565 3.32-5.072 3.025 4.829 2.832z" fill="#FF2D20"/></symbol><symbol fill="none" viewBox="0 0 70 70" id="tech-sber" xmlns="http://www.w3.org/2000/svg"><rect width="70" height="70" rx="8" fill="#fff"/><path d="M47.66 25.217c.76.983 1.404 2.05 1.918 3.182L35.003 39.143l-6.09-3.819v-4.593l6.09 3.818 12.657-9.332z" fill="#21A038"/><path d="M22.696 35c0-.206.005-.41.015-.614l-3.69-.181a15.957 15.957 0 004.666 12.107l2.618-2.617A12.26 12.26 0 0122.696 35z" fill="url(#va)"/><path d="M35 22.695c.206 0 .41.008.614.018l.185-3.693a15.954 15.954 0 00-12.113 4.667l2.618 2.618A12.26 12.26 0 0135 22.695z" fill="url(#vb)"/><path d="M35 47.305c-.206 0-.411 0-.616-.017l-.185 3.692a15.946 15.946 0 0012.108-4.666l-2.613-2.618a12.267 12.267 0 01-8.695 3.609z" fill="url(#vc)"/><path d="M41.937 24.843l3.11-2.293A15.927 15.927 0 0034.997 19v3.695a12.241 12.241 0 016.94 2.148z" fill="url(#vd)"/><path d="M51 35c.002-.961-.082-1.92-.251-2.867l-3.444 2.538v.33a12.272 12.272 0 01-4.053 9.119l2.484 2.745A15.959 15.959 0 0051 35z" fill="#21A038"/><path d="M35.001 47.305a12.279 12.279 0 01-9.12-4.054l-2.744 2.483A15.956 15.956 0 0035 51v-3.695z" fill="url(#ve)"/><path d="M26.75 25.88l-2.483-2.745A15.956 15.956 0 0019 35h3.696a12.273 12.273 0 014.054-9.12z" fill="url(#vf)"/><defs><linearGradient id="va" x1="24.434" y1="45.851" x2="20.395" y2="34.177" gradientUnits="userSpaceOnUse"><stop offset=".14" stop-color="#F1E813"/><stop offset=".3" stop-color="#E6E418"/><stop offset=".58" stop-color="#C9DA26"/><stop offset=".89" stop-color="#A2CC39"/></linearGradient><linearGradient id="vb" x1="24.741" y1="24.34" x2="35.143" y2="20.376" gradientUnits="userSpaceOnUse"><stop offset=".06" stop-color="#0FA7DF"/><stop offset=".54" stop-color="#0098F8"/><stop offset=".92" stop-color="#0290EA"/></linearGradient><linearGradient id="vc" x1="33.956" y1="48.77" x2="45.718" y2="46.112" gradientUnits="userSpaceOnUse"><stop offset=".12" stop-color="#A2CC39"/><stop offset=".28" stop-color="#86C239"/><stop offset=".87" stop-color="#219F38"/></linearGradient><linearGradient id="vd" x1="34.227" y1="20.238" x2="44.284" y2="23.341" gradientUnits="userSpaceOnUse"><stop offset=".06" stop-color="#0290EA"/><stop offset=".79" stop-color="#0C89CA"/></linearGradient><linearGradient id="ve" x1="24.064" y1="45.284" x2="35.01" y2="49.375" gradientUnits="userSpaceOnUse"><stop offset=".13" stop-color="#F1E813"/><stop offset=".3" stop-color="#EAE616"/><stop offset=".53" stop-color="#D8DF1F"/><stop offset=".8" stop-color="#BAD52D"/><stop offset=".98" stop-color="#A2CC39"/></linearGradient><linearGradient id="vf" x1="20.377" y1="35.447" x2="24.771" y2="24.017" gradientUnits="userSpaceOnUse"><stop offset=".07" stop-color="#A2CC39"/><stop offset=".26" stop-color="#81C45E"/><stop offset=".92" stop-color="#0FA7DF"/></linearGradient></defs></symbol><symbol fill="none" viewBox="0 0 70 70" id="tech-sdek" xmlns="http://www.w3.org/2000/svg"><rect width="70" height="70" rx="8" fill="#fff"/><g clip-path="url(#wa)" fill-rule="evenodd" clip-rule="evenodd" fill="#1AB248"><path d="M46.22 44h4.549l1.954-5.662 2.032-1.736 1.6 5.121C56.85 43.306 57.36 44 58.471 44h3.482l-3.592-10.048L67 26h-5.58l-5.244 5.662c-.61.66-1.228 1.308-1.848 2.083h-.053L56.894 26h-4.549l-6.124 18zm-.196-18l3.968.001-.939 2.972c-.295.934-1.043 1.38-2.694 1.38h-9.973l.939-2.972C37.62 26.447 38.368 26 40.019 26h6.005zm-8.32 6.823c2.866 0 7.107 0 9.973.002l-.938 2.971c-.295.934-1.044 1.38-2.695 1.38H34.07l.939-2.972c.295-.934 1.044-1.38 2.694-1.38zm7.545 6.824h-9.973c-1.651 0-2.4.446-2.695 1.38l-.938 2.972 9.973.001c1.65 0 2.4-.447 2.694-1.38l.939-2.973zm-19.651-9.312l2.441.002c2.08 0 1.605 2.592.553 5.119-.928 2.227-2.572 4.192-4.532 4.192h-4.07c-1.623 0-2.37.446-2.686 1.38l-1.005 2.971 2.984.001 2.916-.024c2.587-.022 4.705-.208 7.181-2.43 2.617-2.346 5.668-8.442 5.146-11.968-.41-2.763-1.897-3.577-5.5-3.577L22.464 26 18.64 37.164l2.428.003c1.446.002 2.17.02 2.94-2.045l1.59-4.787zm-11.221.015l-1.836.002c-3.677.001-6.829 9.297-2.48 9.296h2.793c1.612 0 2.808.587 2.278 2.17L14.402 44H11.44l-2.41-.024c-3.084-.031-5.073-1.548-5.79-3.852-.775-2.493.32-7.692 3.496-11.023 1.844-1.932 4.397-3.1 7.671-3.1L20.454 26l-.945 2.724c-.61 1.76-1.859 1.63-2.571 1.629l-2.561-.002z"/></g><defs><clipPath id="wa"><path fill="#fff" transform="translate(3 26)" d="M0 0h64v18H0z"/></clipPath></defs></symbol></svg>