<svg width="152" height="46" fill="none" xmlns="http://www.w3.org/2000/svg"><path d="M146.592 46H5.324C2.39 46 0 43.553 0 40.557V5.435C0 2.438 2.39 0 5.324 0h141.268C149.526 0 152 2.438 152 5.435v35.122c0 2.996-2.474 5.443-5.408 5.443Z" fill="#A6A6A6"/><path d="M150.91 40.558c0 2.434-1.93 4.405-4.317 4.405H5.324c-2.385 0-4.322-1.971-4.322-4.405V5.434c0-2.433 1.937-4.41 4.322-4.41h141.268c2.388 0 4.317 1.977 4.317 4.41l.001 35.124Z" fill="#000"/><path d="M33.922 22.752c-.033-3.707 2.97-5.51 3.108-5.594-1.701-2.533-4.338-2.88-5.265-2.907-2.214-.238-4.363 1.353-5.49 1.353-1.151 0-2.889-1.33-4.761-1.291-2.41.038-4.664 1.463-5.9 3.675-2.551 4.512-.649 11.142 1.796 14.788 1.223 1.786 2.651 3.78 4.521 3.71 1.83-.077 2.514-1.191 4.721-1.191 2.188 0 2.83 1.191 4.737 1.146 1.964-.032 3.2-1.794 4.38-3.596 1.413-2.047 1.98-4.063 2.003-4.166-.046-.016-3.813-1.485-3.85-5.927Zm-3.603-10.9c.983-1.257 1.657-2.967 1.47-4.703-1.424.065-3.206 1.007-4.231 2.236-.908 1.083-1.718 2.859-1.51 4.529 1.6.122 3.244-.825 4.27-2.062ZM60.4 36.23h-2.557l-1.4-4.495h-4.87L50.24 36.23h-2.49l4.824-15.304h2.979L60.4 36.23Zm-4.38-6.381-1.267-3.997c-.134-.408-.385-1.37-.755-2.883h-.045c-.148.651-.385 1.613-.712 2.883l-1.244 3.997h4.023Zm16.785.727c0 1.877-.497 3.36-1.49 4.45-.889.97-1.993 1.453-3.312 1.453-1.423 0-2.445-.522-3.068-1.566h-.045v5.813h-2.4V28.827c0-1.18-.031-2.39-.09-3.633h2.111l.135 1.75h.044c.801-1.318 2.016-1.976 3.646-1.976 1.275 0 2.339.514 3.19 1.543.853 1.03 1.28 2.385 1.28 4.065Zm-2.445.09c0-1.074-.237-1.96-.712-2.657-.52-.726-1.216-1.09-2.09-1.09-.592 0-1.13.203-1.61.602-.483.402-.798.928-.946 1.579a3.275 3.275 0 0 0-.111.747v1.84c0 .803.24 1.48.723 2.033.482.554 1.108.83 1.878.83.904 0 1.608-.357 2.11-1.068.505-.712.758-1.65.758-2.816Zm14.872-.09c0 1.877-.497 3.36-1.491 4.45-.888.97-1.993 1.453-3.311 1.453-1.424 0-2.446-.522-3.067-1.566h-.046v5.813h-2.4V28.827c0-1.18-.03-2.39-.089-3.633h2.111l.134 1.75h.045c.8-1.318 2.014-1.976 3.646-1.976 1.273 0 2.337.514 3.19 1.543.851 1.03 1.278 2.385 1.278 4.065Zm-2.446.09c0-1.074-.237-1.96-.713-2.657-.519-.726-1.213-1.09-2.088-1.09-.594 0-1.13.203-1.612.602-.482.402-.797.928-.944 1.579a3.338 3.338 0 0 0-.112.747v1.84c0 .803.242 1.48.721 2.033.482.552 1.108.83 1.88.83.905 0 1.608-.357 2.112-1.068.504-.712.756-1.65.756-2.816Zm16.34 1.272c0 1.302-.443 2.36-1.331 3.178-.976.894-2.335 1.34-4.082 1.34-1.612 0-2.904-.317-3.883-.953l.556-2.044a6.476 6.476 0 0 0 3.47.978c.904 0 1.608-.21 2.114-.626.503-.416.754-.975.754-1.672 0-.62-.207-1.144-.623-1.569-.413-.424-1.103-.818-2.067-1.183-2.623-1-3.934-2.463-3.934-4.388 0-1.258.46-2.29 1.38-3.093.916-.803 2.139-1.205 3.668-1.205 1.363 0 2.496.243 3.4.727l-.6 1.999c-.844-.47-1.8-.704-2.868-.704-.844 0-1.504.213-1.977.636-.4.378-.6.84-.6 1.386 0 .604.229 1.105.688 1.498.4.363 1.126.757 2.18 1.181 1.289.53 2.236 1.15 2.845 1.86.607.71.91 1.596.91 2.654Zm7.936-4.904h-2.646v5.358c0 1.363.467 2.043 1.401 2.043.429 0 .785-.038 1.066-.114l.067 1.862c-.473.18-1.096.272-1.867.272-.948 0-1.689-.296-2.224-.886-.532-.59-.8-1.582-.8-2.975v-5.562h-1.577v-1.84h1.577v-2.02l2.357-.728v2.748h2.646v1.842Zm11.939 3.587c0 1.696-.476 3.089-1.424 4.178-.994 1.121-2.313 1.68-3.958 1.68-1.586 0-2.848-.537-3.789-1.611-.941-1.074-1.412-2.43-1.412-4.064 0-1.71.484-3.11 1.456-4.2.969-1.09 2.278-1.635 3.923-1.635 1.585 0 2.86.537 3.823 1.612.921 1.043 1.381 2.39 1.381 4.04Zm-2.491.08c0-1.018-.213-1.891-.644-2.62-.503-.88-1.223-1.32-2.155-1.32-.965 0-1.698.441-2.201 1.32-.431.73-.644 1.617-.644 2.665 0 1.018.213 1.89.644 2.618.519.88 1.244 1.32 2.18 1.32.916 0 1.636-.448 2.155-1.343.442-.742.665-1.624.665-2.64Zm10.292-3.351a4.084 4.084 0 0 0-.757-.067c-.844 0-1.497.325-1.956.977-.4.575-.601 1.302-.601 2.18v5.79h-2.399l.023-7.56c0-1.272-.031-2.43-.091-3.475h2.091l.088 2.112h.067c.253-.726.653-1.31 1.2-1.748.535-.395 1.112-.591 1.735-.591.222 0 .422.016.6.045v2.338Zm10.735 2.84c0 .44-.028.81-.087 1.112h-7.202c.028 1.09.376 1.924 1.045 2.5.607.513 1.392.77 2.356.77 1.066 0 2.039-.173 2.913-.521l.376 1.702c-1.022.455-2.229.682-3.622.682-1.675 0-2.99-.504-3.947-1.51-.955-1.007-1.433-2.358-1.433-4.053 0-1.664.444-3.05 1.335-4.155.932-1.18 2.192-1.77 3.777-1.77 1.558 0 2.736.59 3.537 1.77.634.937.952 2.097.952 3.473Zm-2.289-.636c.016-.727-.14-1.354-.466-1.885-.415-.682-1.054-1.022-1.913-1.022-.784 0-1.423.332-1.91 1-.4.53-.638 1.165-.711 1.906h5v.001ZM55.227 11.51c0 1.354-.398 2.373-1.192 3.057-.735.631-1.78.948-3.133.948-.671 0-1.245-.03-1.726-.09V8.03a12.476 12.476 0 0 1 2.032-.156c1.29 0 2.26.286 2.916.86.734.647 1.102 1.572 1.102 2.777Zm-1.245.034c0-.878-.227-1.55-.682-2.02-.455-.468-1.12-.702-1.994-.702-.371 0-.688.025-.95.078v5.622c.145.023.41.034.797.034.903 0 1.6-.257 2.09-.77.492-.513.74-1.26.74-2.242Zm7.841 1.148c0 .834-.233 1.517-.699 2.053-.489.55-1.136.826-1.944.826-.78 0-1.4-.264-1.863-.793-.461-.528-.692-1.194-.692-1.996 0-.84.238-1.528.715-2.063.477-.535 1.12-.803 1.927-.803.78 0 1.406.263 1.88.791.45.513.676 1.175.676 1.985Zm-1.224.04c0-.501-.105-.93-.316-1.288-.248-.432-.6-.648-1.058-.648-.474 0-.834.216-1.082.648-.212.358-.317.794-.317 1.31 0 .5.106.928.317 1.286.255.432.611.649 1.07.649.45 0 .804-.22 1.059-.66.218-.365.328-.797.328-1.298Zm10.07-2.706-1.661 5.421h-1.081l-.688-2.354a17.919 17.919 0 0 1-.427-1.751h-.021a13.054 13.054 0 0 1-.427 1.751l-.73 2.354H64.54l-1.562-5.42h1.213l.6 2.577c.145.609.265 1.19.36 1.74h.022c.088-.454.233-1.03.438-1.729l.753-2.588h.962l.721 2.533c.175.617.317 1.212.426 1.785h.033c.08-.558.2-1.153.36-1.785l.644-2.533h1.159Zm6.116 5.422h-1.18v-3.105c0-.957-.356-1.435-1.07-1.435-.35 0-.632.13-.852.394a1.418 1.418 0 0 0-.327.93v3.215h-1.18v-3.871c0-.476-.015-.992-.043-1.551h1.037l.055.847h.033c.137-.263.342-.48.611-.654a1.96 1.96 0 0 1 1.07-.305c.495 0 .907.163 1.235.491.407.402.611 1 .611 1.796v3.248Zm3.255 0h-1.179V7.539h1.18v7.909Zm6.947-2.756c0 .834-.233 1.517-.699 2.053-.488.55-1.137.826-1.944.826-.78 0-1.4-.264-1.862-.793-.462-.528-.693-1.194-.693-1.996 0-.84.238-1.528.715-2.063.477-.535 1.12-.803 1.926-.803.78 0 1.406.263 1.88.791.451.513.677 1.175.677 1.985Zm-1.224.04c0-.501-.106-.93-.317-1.288-.246-.432-.6-.648-1.057-.648-.475 0-.836.216-1.082.648-.212.358-.317.794-.317 1.31 0 .5.106.928.317 1.286.255.432.611.649 1.07.649.45 0 .803-.22 1.058-.66.22-.365.328-.797.328-1.298Zm6.934 2.715h-1.06l-.087-.624h-.033c-.362.498-.88.748-1.55.748-.501 0-.907-.165-1.212-.492-.277-.296-.415-.665-.415-1.104 0-.662.27-1.167.814-1.516.543-.35 1.306-.521 2.289-.513v-.101c0-.715-.367-1.071-1.102-1.071a2.43 2.43 0 0 0-1.384.401l-.24-.79c.493-.313 1.102-.469 1.82-.469 1.388 0 2.084.748 2.084 2.242v1.997c0 .542.026.973.076 1.293Zm-1.225-1.862v-.837c-1.301-.022-1.952.342-1.952 1.093 0 .283.074.495.226.636a.815.815 0 0 0 .577.211c.259 0 .5-.083.721-.25a1.028 1.028 0 0 0 .428-.854Zm7.931 1.863h-1.047l-.056-.87h-.032c-.335.662-.904.993-1.705.993-.64 0-1.172-.257-1.594-.77-.422-.513-.633-1.178-.633-1.996 0-.877.228-1.588.688-2.131.445-.506.99-.759 1.638-.759.713 0 1.212.245 1.495.736h.023V7.539h1.18v6.448c0 .528.014 1.014.043 1.46ZM98.18 13.16v-.903a1.81 1.81 0 0 0-.033-.38 1.378 1.378 0 0 0-.427-.73 1.146 1.146 0 0 0-.789-.296c-.44 0-.785.178-1.038.536-.251.358-.378.814-.378 1.372 0 .536.12.97.362 1.305.256.357.6.535 1.032.535.387 0 .697-.148.932-.446.227-.275.339-.606.339-.993Zm11.313-.468c0 .834-.233 1.517-.699 2.053-.489.55-1.135.826-1.944.826-.778 0-1.399-.264-1.863-.793-.461-.528-.692-1.194-.692-1.996 0-.84.237-1.528.715-2.063.477-.535 1.119-.803 1.929-.803.778 0 1.405.263 1.878.791.45.513.676 1.175.676 1.985Zm-1.222.04c0-.501-.106-.93-.317-1.288-.249-.432-.6-.648-1.059-.648-.473 0-.834.216-1.082.648-.212.358-.317.794-.317 1.31 0 .5.106.928.317 1.286.255.432.611.649 1.07.649.451 0 .805-.22 1.06-.66.217-.365.328-.797.328-1.298Zm7.568 2.716h-1.179v-3.105c0-.957-.356-1.435-1.071-1.435-.35 0-.633.13-.851.394a1.409 1.409 0 0 0-.328.93v3.215h-1.181v-3.871c0-.476-.013-.992-.041-1.551h1.035l.056.847h.032a1.75 1.75 0 0 1 .612-.654c.32-.203.677-.305 1.07-.305.495 0 .907.163 1.234.491.409.402.612 1 .612 1.796v3.248Zm7.94-4.518h-1.299v2.633c0 .67.231 1.004.688 1.004.212 0 .387-.018.526-.056l.03.914c-.233.09-.539.134-.916.134-.466 0-.829-.144-1.091-.434-.264-.29-.394-.778-.394-1.462V10.93h-.776v-.903h.776v-.994l1.156-.356v1.349h1.299v.904h.001Zm6.247 4.518h-1.182v-3.082c0-.972-.355-1.459-1.068-1.459-.547 0-.921.282-1.126.846a1.541 1.541 0 0 0-.055.433v3.26h-1.179V7.54h1.179v3.267h.022c.372-.594.904-.891 1.595-.891.488 0 .893.163 1.213.491.4.408.601 1.015.601 1.818v3.224Zm6.445-2.967c0 .216-.016.398-.044.546h-3.539c.016.536.185.945.512 1.227.3.253.686.38 1.159.38.523 0 1.001-.085 1.431-.257l.185.838c-.504.223-1.096.334-1.782.334-.822 0-1.469-.247-1.937-.742-.471-.494-.704-1.158-.704-1.99 0-.818.217-1.499.655-2.041.457-.58 1.076-.87 1.856-.87.763 0 1.343.29 1.735.87.316.46.473 1.029.473 1.705Zm-1.126-.312a1.649 1.649 0 0 0-.229-.925c-.205-.335-.517-.503-.939-.503-.385 0-.699.163-.939.491a1.844 1.844 0 0 0-.35.937h2.457Z" fill="#fff"/></svg>