<svg width="48" height="48" fill="none" xmlns="http://www.w3.org/2000/svg"><rect width="48" height="48" rx="8" fill="#fff"/><path clip-rule="evenodd" d="M28.513 33.5h-8.348c-3.066 0-5.418-1.108-4.75-5.565l.778-6.042c.412-2.224 1.83-3.075 3.075-3.075h10.179c1.263 0 2.6.915 3.076 3.075l.778 6.042c.567 3.954-1.721 5.565-4.788 5.565Z" stroke="#ED5E4C" stroke-width="1.5" stroke-linecap="round" stroke-linejoin="round"/><path d="M28.651 18.598a4.32 4.32 0 0 0-4.32-4.32v0a4.32 4.32 0 0 0-4.339 4.32v0m7.305 4.504h-.046m-5.786 0h-.046" stroke="#ED5E4C" stroke-width="1.5" stroke-linecap="round" stroke-linejoin="round"/></svg>