<svg width="48" height="48" fill="none" xmlns="http://www.w3.org/2000/svg"><rect width="48" height="48" rx="8" fill="#ED5E4C"/><path d="M15.092 21.404h17.824m-4.473 3.906h.01m-4.448 0h.01m-4.457 0h.01m8.875 3.886h.01m-4.448 0h.01m-4.457 0h.01M28.043 14v3.29M19.965 14v3.29" stroke="#fff" stroke-width="2" stroke-linecap="round" stroke-linejoin="round"/><path clip-rule="evenodd" d="M28.238 15.58h-8.467c-2.937 0-4.771 1.635-4.771 4.642v9.05C15 32.326 16.834 34 19.771 34h8.458C31.175 34 33 32.355 33 29.347v-9.125c.01-3.007-1.816-4.643-4.762-4.643Z" stroke="#fff" stroke-width="2" stroke-linecap="round" stroke-linejoin="round"/></svg>