<svg width="156" height="46" fill="none" xmlns="http://www.w3.org/2000/svg"><path fill-rule="evenodd" clip-rule="evenodd" d="M150.22 46H5.78C2.594 46 0 43.407 0 40.25V5.75C0 2.581 2.594 0 5.78 0h144.44c3.183 0 5.78 2.581 5.78 5.75v34.5c0 3.157-2.597 5.75-5.78 5.75Z" fill="#000"/><path fill-rule="evenodd" clip-rule="evenodd" d="M150.22.92c2.672 0 4.859 2.172 4.859 4.83v34.5c0 2.658-2.173 4.83-4.859 4.83H5.78c-2.672 0-4.86-2.173-4.86-4.83V5.75C.921 3.092 3.094.92 5.78.92h144.44Zm0-.92H5.78C2.594 0 0 2.593 0 5.75v34.5C0 43.419 2.594 46 5.78 46h144.44c3.183 0 5.78-2.581 5.78-5.75V5.75c0-3.157-2.597-5.75-5.78-5.75Z" fill="#A6A6A6"/><path d="M82.182 15.217c-1.042 0-1.92-.365-2.615-1.082a3.68 3.68 0 0 1-1.056-2.638c0-1.047.356-1.933 1.056-2.636.692-.717 1.57-1.08 2.612-1.08 1.03 0 1.908.363 2.614 1.08.7.726 1.056 1.612 1.056 2.636-.011 1.05-.367 1.936-1.056 2.636-.691.722-1.57 1.084-2.611 1.084Zm-30.998 0a3.633 3.633 0 0 1-2.625-1.067c-.718-.706-1.082-1.598-1.082-2.65 0-1.053.364-1.945 1.082-2.65.708-.708 1.592-1.067 2.625-1.067.506 0 .996.1 1.467.304.462.198.838.468 1.116.797l.07.084-.779.762-.08-.094c-.439-.522-1.027-.777-1.805-.777-.695 0-1.3.246-1.8.734-.502.49-.757 1.133-.757 1.91 0 .777.255 1.42.758 1.91a2.496 2.496 0 0 0 1.799.734c.74 0 1.363-.247 1.848-.734.287-.287.465-.689.528-1.196h-2.494v-1.073h3.565l.014.098c.026.18.052.367.052.539 0 .99-.299 1.79-.89 2.38-.672.7-1.55 1.056-2.612 1.056Zm41.215-.152h-1.1l-3.366-5.383.029.969v4.41h-1.1V7.936h1.255l.034.055 3.166 5.07-.03-.966v-4.16h1.111v7.13Zm-18.477 0H72.81V9.008h-1.932V7.935h4.974v1.073H73.92v6.057h.002Zm-3.951 0H68.86v-7.13h1.11v7.13Zm-6.242 0h-1.111V9.008h-1.931V7.935h4.973v1.073h-1.931v6.057Zm-3.746-.012h-4.258V7.935h4.258v1.073h-3.145v1.956h2.838v1.06h-2.838v1.957h3.145v1.072Zm20.4-1.655a2.454 2.454 0 0 0 1.799.746c.72 0 1.308-.244 1.8-.746.487-.487.734-1.127.734-1.898 0-.772-.247-1.414-.732-1.899a2.463 2.463 0 0 0-1.8-.745c-.72 0-1.308.243-1.796.745-.488.488-.735 1.127-.735 1.899 0 .771.244 1.414.73 1.898Z" fill="#fff"/><path fill-rule="evenodd" clip-rule="evenodd" d="M78.407 25.019c-2.712 0-4.91 2.056-4.91 4.892 0 2.81 2.213 4.893 4.91 4.893 2.712 0 4.91-2.071 4.91-4.893 0-2.836-2.198-4.892-4.91-4.892Zm0 7.846c-1.483 0-2.76-1.228-2.76-2.965 0-1.764 1.28-2.966 2.76-2.966 1.484 0 2.761 1.202 2.761 2.966.003 1.749-1.277 2.965-2.76 2.965Zm-10.713-7.846c-2.712 0-4.91 2.056-4.91 4.892 0 2.81 2.212 4.893 4.91 4.893 2.712 0 4.91-2.071 4.91-4.893 0-2.836-2.2-4.892-4.91-4.892Zm0 7.846c-1.484 0-2.76-1.228-2.76-2.965 0-1.764 1.28-2.966 2.76-2.966 1.484 0 2.76 1.202 2.76 2.966 0 1.749-1.276 2.965-2.76 2.965Zm-12.748-6.352v2.07h4.974c-.153 1.162-.537 2.02-1.125 2.607-.73.729-1.854 1.52-3.837 1.52-3.057 0-5.447-2.466-5.447-5.52 0-3.055 2.39-5.521 5.447-5.521 1.65 0 2.852.651 3.745 1.483l1.47-1.469c-1.24-1.187-2.89-2.096-5.204-2.096-4.193 0-7.711 3.413-7.711 7.591 0 4.19 3.515 7.591 7.711 7.591 2.264 0 3.963-.74 5.306-2.133 1.37-1.368 1.803-3.299 1.803-4.856 0-.484-.038-.92-.115-1.29h-7.02c.003-.003.003.023.003.023Zm52.143 1.611c-.411-1.098-1.65-3.117-4.193-3.117-2.52 0-4.615 1.982-4.615 4.893 0 2.747 2.072 4.892 4.859 4.892 2.238 0 3.541-1.368 4.078-2.17l-1.662-1.113c-.551.817-1.317 1.353-2.405 1.353-1.099 0-1.868-.499-2.379-1.483l6.546-2.71c0 .003-.229-.545-.229-.545Zm-6.676 1.635c-.051-1.89 1.47-2.85 2.557-2.85.859 0 1.573.421 1.817 1.035l-4.374 1.815Zm-5.317 4.74h2.15V20.127h-2.15V34.5Zm-3.53-8.394h-.078c-.485-.576-1.406-1.098-2.583-1.098-2.442 0-4.692 2.148-4.692 4.907 0 2.747 2.239 4.87 4.692 4.87 1.163 0 2.098-.525 2.583-1.113h.078v.702c0 1.867-1 2.874-2.61 2.874-1.316 0-2.134-.946-2.467-1.738l-1.868.78c.536 1.29 1.968 2.888 4.333 2.888 2.52 0 4.655-1.483 4.655-5.099V25.3h-2.032v.805h-.011Zm-2.469 6.76c-1.483 0-2.723-1.239-2.723-2.951 0-1.727 1.24-2.977 2.724-2.977 1.469 0 2.608 1.265 2.608 2.977.015 1.712-1.136 2.951-2.609 2.951Zm28.056-12.739h-5.14V34.5h2.15v-5.444h2.993c2.379 0 4.718-1.723 4.718-4.459 0-2.736-2.33-4.47-4.721-4.47Zm.063 6.923h-3.056v-4.933h3.056c1.61 0 2.52 1.328 2.52 2.467 0 1.127-.921 2.466-2.52 2.466Zm13.274-2.056c-1.562 0-3.172.69-3.837 2.197l1.905.791c.411-.792 1.162-1.061 1.957-1.061 1.114 0 2.239.665 2.265 1.853v.152c-.385-.218-1.229-.551-2.239-.551-2.057 0-4.144 1.124-4.144 3.232 0 1.93 1.688 3.169 3.567 3.169 1.444 0 2.239-.651 2.735-1.405h.078v1.112h2.072v-5.506c0-2.564-1.906-3.983-4.359-3.983Zm-.27 7.872c-.703 0-1.688-.344-1.688-1.228 0-1.112 1.229-1.534 2.276-1.534.947 0 1.395.204 1.957.485a2.586 2.586 0 0 1-2.545 2.277Zm12.188-7.565-2.468 6.234h-.077l-2.557-6.234h-2.314l3.837 8.715-2.186 4.844h2.238l5.903-13.56h-2.376Zm-19.348 9.2h2.149V20.126h-2.149V34.5Z" fill="#fff"/><path fill-rule="evenodd" clip-rule="evenodd" d="M12.008 8.663c-.333.359-.526.907-.526 1.624v25.429c0 .717.193 1.264.537 1.608l.09.078 14.257-14.248v-.318l-14.27-14.25-.088.077Z" fill="url(#a)"/><path fill-rule="evenodd" clip-rule="evenodd" d="m31.109 27.919-4.756-4.752v-.333l4.756-4.752.103.063 5.625 3.195c1.61.906 1.61 2.403 0 3.32l-5.625 3.196-.103.063Z" fill="url(#b)"/><path fill-rule="evenodd" clip-rule="evenodd" d="M31.213 27.855 26.354 23 12.008 37.336c.525.562 1.406.626 2.39.078l16.815-9.559Z" fill="url(#c)"/><path fill-rule="evenodd" clip-rule="evenodd" d="M31.213 18.145 14.398 8.6c-.984-.562-1.868-.485-2.39.077L26.354 23l4.859-4.855Z" fill="url(#d)"/><path opacity=".2" fill-rule="evenodd" clip-rule="evenodd" d="m31.11 27.752-16.7 9.481c-.933.536-1.765.499-2.302.012l-.088.088.088.078c.537.484 1.37.525 2.302-.012l16.815-9.544-.115-.103Z" fill="#000"/><path opacity=".12" fill-rule="evenodd" clip-rule="evenodd" d="m36.838 24.494-5.742 3.258.103.103 5.625-3.195c.806-.458 1.202-1.06 1.202-1.66-.048.55-.459 1.073-1.188 1.494Z" fill="#000"/><path opacity=".25" fill-rule="evenodd" clip-rule="evenodd" d="m14.398 8.767 22.44 12.739c.729.41 1.139.946 1.202 1.494 0-.6-.396-1.201-1.202-1.66L14.398 8.6c-1.61-.92-2.916-.151-2.916 1.687v.166c0-1.84 1.306-2.595 2.916-1.686Z" fill="#fff"/><defs><linearGradient id="a" x1="25.087" y1="10.012" x2="2.251" y2="16.101" gradientUnits="userSpaceOnUse"><stop stop-color="#00A0FF"/><stop offset=".007" stop-color="#00A1FF"/><stop offset=".26" stop-color="#00BEFF"/><stop offset=".512" stop-color="#00D2FF"/><stop offset=".76" stop-color="#00DFFF"/><stop offset="1" stop-color="#00E3FF"/></linearGradient><linearGradient id="b" x1="38.937" y1="23" x2="11.091" y2="23" gradientUnits="userSpaceOnUse"><stop stop-color="#FFE000"/><stop offset=".409" stop-color="#FFBD00"/><stop offset=".775" stop-color="orange"/><stop offset="1" stop-color="#FF9C00"/></linearGradient><linearGradient id="c" x1="28.571" y1="25.642" x2="10.256" y2="56.49" gradientUnits="userSpaceOnUse"><stop stop-color="#FF3A44"/><stop offset="1" stop-color="#C31162"/></linearGradient><linearGradient id="d" x1="8.395" y1=".206" x2="16.566" y2="13.983" gradientUnits="userSpaceOnUse"><stop stop-color="#32A071"/><stop offset=".069" stop-color="#2DA771"/><stop offset=".476" stop-color="#15CF74"/><stop offset=".801" stop-color="#06E775"/><stop offset="1" stop-color="#00F076"/></linearGradient></defs></svg>