<svg width="48" height="48" fill="none" xmlns="http://www.w3.org/2000/svg"><rect width="48" height="48" rx="8" fill="#fff"/><path clip-rule="evenodd" d="M29.279 25.889c.674 0 1.24.556 1.138 1.223-.606 3.92-3.962 6.83-8.009 6.83a8.107 8.107 0 0 1-8.107-8.106c0-3.688 2.802-7.124 5.957-7.901.678-.167 1.372.31 1.372 1.007 0 4.729.16 5.952 1.057 6.617.898.665 1.954.33 6.592.33Z" stroke="#ED5E4C" stroke-width="1.5" stroke-linecap="round" stroke-linejoin="round"/><path clip-rule="evenodd" d="M33.694 21.951c.054-3.038-3.678-7.934-8.225-7.85a.678.678 0 0 0-.653.653c-.114 2.498.04 5.735.127 7.202a.89.89 0 0 0 .84.843c1.509.086 4.864.204 7.326-.169a.695.695 0 0 0 .585-.679Z" stroke="#ED5E4C" stroke-width="1.5" stroke-linecap="round" stroke-linejoin="round"/></svg>