<svg width="70" height="70" fill="none" xmlns="http://www.w3.org/2000/svg"><rect width="70" height="70" rx="8" fill="#fff"/><path d="M47.66 25.217c.76.983 1.404 2.05 1.918 3.182L35.003 39.143l-6.09-3.819v-4.593l6.09 3.818 12.657-9.332Z" fill="#21A038"/><path d="M22.696 35c0-.206.005-.41.015-.614l-3.69-.181a15.957 15.957 0 0 0 4.666 12.107l2.618-2.617A12.26 12.26 0 0 1 22.696 35Z" fill="url(#a)"/><path d="M35 22.695c.206 0 .41.008.614.018l.185-3.693a15.954 15.954 0 0 0-12.113 4.667l2.618 2.618A12.26 12.26 0 0 1 35 22.695Z" fill="url(#b)"/><path d="M35 47.305c-.206 0-.411 0-.616-.017l-.185 3.692a15.946 15.946 0 0 0 12.108-4.666l-2.613-2.618a12.267 12.267 0 0 1-8.695 3.609Z" fill="url(#c)"/><path d="m41.937 24.843 3.11-2.293A15.927 15.927 0 0 0 34.997 19v3.695a12.241 12.241 0 0 1 6.94 2.148Z" fill="url(#d)"/><path d="M51 35c.002-.961-.082-1.92-.251-2.867l-3.444 2.538v.33a12.272 12.272 0 0 1-4.053 9.119l2.484 2.745A15.959 15.959 0 0 0 51 35Z" fill="#21A038"/><path d="M35.001 47.305a12.279 12.279 0 0 1-9.12-4.054l-2.744 2.483A15.956 15.956 0 0 0 35 51v-3.695Z" fill="url(#e)"/><path d="m26.75 25.88-2.483-2.745A15.956 15.956 0 0 0 19 35h3.696a12.273 12.273 0 0 1 4.054-9.12Z" fill="url(#f)"/><defs><linearGradient id="a" x1="24.434" y1="45.851" x2="20.395" y2="34.177" gradientUnits="userSpaceOnUse"><stop offset=".14" stop-color="#F1E813"/><stop offset=".3" stop-color="#E6E418"/><stop offset=".58" stop-color="#C9DA26"/><stop offset=".89" stop-color="#A2CC39"/></linearGradient><linearGradient id="b" x1="24.741" y1="24.34" x2="35.143" y2="20.376" gradientUnits="userSpaceOnUse"><stop offset=".06" stop-color="#0FA7DF"/><stop offset=".54" stop-color="#0098F8"/><stop offset=".92" stop-color="#0290EA"/></linearGradient><linearGradient id="c" x1="33.956" y1="48.77" x2="45.718" y2="46.112" gradientUnits="userSpaceOnUse"><stop offset=".12" stop-color="#A2CC39"/><stop offset=".28" stop-color="#86C239"/><stop offset=".87" stop-color="#219F38"/></linearGradient><linearGradient id="d" x1="34.227" y1="20.238" x2="44.284" y2="23.341" gradientUnits="userSpaceOnUse"><stop offset=".06" stop-color="#0290EA"/><stop offset=".79" stop-color="#0C89CA"/></linearGradient><linearGradient id="e" x1="24.064" y1="45.284" x2="35.01" y2="49.375" gradientUnits="userSpaceOnUse"><stop offset=".13" stop-color="#F1E813"/><stop offset=".3" stop-color="#EAE616"/><stop offset=".53" stop-color="#D8DF1F"/><stop offset=".8" stop-color="#BAD52D"/><stop offset=".98" stop-color="#A2CC39"/></linearGradient><linearGradient id="f" x1="20.377" y1="35.447" x2="24.771" y2="24.017" gradientUnits="userSpaceOnUse"><stop offset=".07" stop-color="#A2CC39"/><stop offset=".26" stop-color="#81C45E"/><stop offset=".92" stop-color="#0FA7DF"/></linearGradient></defs></svg>