<svg width="70" height="70" fill="none" xmlns="http://www.w3.org/2000/svg"><rect width="70" height="70" rx="8" fill="#fff"/><path fill-rule="evenodd" clip-rule="evenodd" d="M34.098 50.613c7.783 0 14.09-6.39 14.09-14.275 0-2.767-.776-5.349-2.12-7.536.005.132.008.264.008.397 0 5.914-4.732 10.707-10.569 10.707-3.594 0-6.77-1.818-8.678-4.596-.82-1.194-1.469-2.555-1.693-4.046-.382-2.549-1.532-4.835-3.31-6.5.192.684.295 1.405.295 2.15 0 .983-.106 1.954-.503 2.79-.958 2.018-1.61 4.24-1.61 6.633 0 7.884 6.309 14.275 14.09 14.275v.001Z" fill="url(#a)"/><path fill-rule="evenodd" clip-rule="evenodd" d="M36.692 36.101c4.157 0 7.525-3.422 7.525-7.644a7.77 7.77 0 0 0-.242-1.933 9.54 9.54 0 0 1-.19.544 3.02 3.02 0 0 1-.115.039l-.04.013-.026.009a7.67 7.67 0 0 0-1.075-1.798c.073-.43.186-.846.336-1.247a7.535 7.535 0 0 0-2.705-2.413 7.44 7.44 0 0 0-7.002.035 7.538 7.538 0 0 0-2.682 2.44c.146.402.256.821.325 1.252a7.674 7.674 0 0 0-1.029 1.748l-.084-.027-.04-.012a6.657 6.657 0 0 1-.114-.038 9.013 9.013 0 0 1-.154-.432 7.782 7.782 0 0 0-.214 1.819c0 4.222 3.37 7.644 7.525 7.644l.001.001Z" fill="#FEFEFE"/><path fill-rule="evenodd" clip-rule="evenodd" d="M34.45 45.495c7.197 0 13.033-5.114 13.033-11.422 0-1.849-.501-3.595-1.39-5.14l.003.267c0 5.916-4.731 10.711-10.568 10.711-3.595 0-6.77-1.819-8.68-4.597-.82-1.195-1.468-2.556-1.692-4.048-.382-2.55-1.532-4.836-3.31-6.502 2.113 6.515-.43 5.283-.43 10.736 0 6.309 5.835 9.995 13.033 9.995Z" fill="url(#b)"/><path fill-rule="evenodd" clip-rule="evenodd" d="M24.746 29.622c-.547-1.884-1.536-3.56-2.9-4.858.193.7.29 1.423.29 2.15 0 .981-.106 1.953-.496 2.787a19.32 19.32 0 0 0-.544 1.279c.263.906.469 2.026.382 3.177.982-2.52 2.226-3.842 3.27-4.535h-.002Z" fill="#E7EAEF" stroke="#EBECEC" stroke-width=".2" stroke-miterlimit="22.926"/><path fill-rule="evenodd" clip-rule="evenodd" d="M45.01 19.387c.16 3.29-.163 6.14-.86 7.97a7.618 7.618 0 0 0-.164-.827c.42-1.328.67-3.085.72-5.099a6.792 6.792 0 0 0-1.831 2.671 7.63 7.63 0 0 0-1.13-1.292 7.598 7.598 0 0 1 3.265-3.422v-.001Zm-16.7 0c-.162 3.322.169 6.194.879 8.021l.035.012a7.63 7.63 0 0 1 .147-.778c-.442-1.34-.706-3.139-.757-5.21a6.792 6.792 0 0 1 1.854 2.732 7.58 7.58 0 0 1 1.127-1.313 7.599 7.599 0 0 0-3.285-3.464Z" fill="url(#c)"/><path fill-rule="evenodd" clip-rule="evenodd" d="M46.093 28.975v.074l.001.004v.188c0 5.887-4.735 10.66-10.578 10.66-.054 0-.108 0-.164-.002h-.006a4.79 4.79 0 0 1-.16-.003h-.01l-.159-.007h-.008l-.158-.009h-.01l-.159-.012h-.001l-.157-.013-.013-.002-.15-.015-.015-.002-.15-.017-.017-.002a10.34 10.34 0 0 1-.147-.02l-.016-.002a9.883 9.883 0 0 1-.143-.022l-.015-.002a3.899 3.899 0 0 1-.144-.024l-.018-.003-.141-.026-.023-.004-.139-.027-.022-.005a3.826 3.826 0 0 1-.14-.03l-.017-.004-.133-.031-.023-.005-.132-.033-.026-.007a9.294 9.294 0 0 1-.129-.033l-.034-.01a10.199 10.199 0 0 1-.123-.035l-.033-.009-.122-.035-.03-.01-.117-.037-.036-.012a9.688 9.688 0 0 1-.116-.038l-.035-.012-.117-.04-.037-.014a16.03 16.03 0 0 1-.116-.042v.003c0 3.129 2.517 5.664 5.621 5.664.507 0 1.29-.156 2.245-.424 4.573-1.768 7.763-5.758 7.763-10.398 0-1.84-.503-3.577-1.393-5.115h.002Z" fill="#F45424"/><path fill-rule="evenodd" clip-rule="evenodd" d="M38.068 50.03c5.849-1.728 10.12-7.194 10.12-13.67 0-2.753-.773-5.323-2.11-7.501v.37c0-.084-.001-.17-.004-.254l.001-.122-.005-.009.004.131a10.2 10.2 0 0 1 1.39 5.124c0 3.895-2.234 7.332-5.642 9.386a6.47 6.47 0 0 1-.82 3.893 6.36 6.36 0 0 1-2.933 2.652Z" fill="url(#d)"/><path fill-rule="evenodd" clip-rule="evenodd" d="M36.692 36.101c4.157 0 7.525-3.422 7.525-7.644a7.77 7.77 0 0 0-.242-1.933 9.54 9.54 0 0 1-.19.544 3.02 3.02 0 0 1-.115.039l-.04.013-.026.009a7.67 7.67 0 0 0-1.075-1.798c.073-.43.186-.846.336-1.247a7.535 7.535 0 0 0-2.705-2.413 7.44 7.44 0 0 0-7.002.035 7.538 7.538 0 0 0-2.682 2.44c.146.402.256.821.325 1.252a7.674 7.674 0 0 0-1.029 1.748l-.084-.027-.04-.012a6.657 6.657 0 0 1-.114-.038 9.013 9.013 0 0 1-.154-.432 7.782 7.782 0 0 0-.214 1.819c0 4.222 3.37 7.644 7.525 7.644l.001.001Z" fill="url(#e)"/><path fill-rule="evenodd" clip-rule="evenodd" d="M42.04 27.468a7.33 7.33 0 0 0-.297-.442c.064-.412.162-.812.292-1.196-1.18-1.897-3.14-3.14-5.36-3.14-2.24 0-4.219 1.268-5.396 3.199.128.387.223.788.282 1.202a7.11 7.11 0 0 0-.21.313l4.227 5.588h2.326l4.135-5.524Z" fill="url(#f)"/><path fill-rule="evenodd" clip-rule="evenodd" d="M42.552 25.287a7.079 7.079 0 0 0-5.867 4.05 7.08 7.08 0 0 0-5.931-4.055l.022.13a7.626 7.626 0 0 0-1.033 1.74 8.238 8.238 0 0 1-.084-.026l-.04-.012-.07-.023c.404 3.612 3.445 6.42 7.136 6.42 3.723 0 6.784-2.856 7.147-6.511l-.03.076a2.466 2.466 0 0 1-.114.038l-.04.013-.028.009a7.63 7.63 0 0 0-1.078-1.79l.01-.059Z" fill="url(#g)"/><path fill-rule="evenodd" clip-rule="evenodd" d="M43.578 27.775a7.1 7.1 0 0 0-.654-.031c-2.768 0-5.153 1.614-6.232 3.936-1.08-2.322-3.465-3.936-6.234-3.936-.22 0-.438.01-.653.031a7.214 7.214 0 0 0-.063.94c0 3.866 3.111 6.998 6.95 6.998 3.837 0 6.95-3.133 6.95-6.997a7.182 7.182 0 0 0-.064-.94Z" fill="#FEFEFE"/><defs><linearGradient id="a" x1="14.948" y1="29.004" x2="49.368" y2="61.131" gradientUnits="userSpaceOnUse"><stop stop-color="#FB9006"/><stop offset="1" stop-color="#FB9006"/></linearGradient><linearGradient id="b" x1="22.186" y1="34.416" x2="37.071" y2="46.072" gradientUnits="userSpaceOnUse"><stop stop-color="#FF6E00"/><stop offset="1" stop-color="#F87A0A"/></linearGradient><linearGradient id="c" x1="36.771" y1="28.451" x2="36.771" y2="20.892" gradientUnits="userSpaceOnUse"><stop stop-color="#FD6D47"/><stop offset="1" stop-color="#E04922"/></linearGradient><linearGradient id="d" x1="46.529" y1="29.972" x2="37.896" y2="49.955" gradientUnits="userSpaceOnUse"><stop stop-color="#EF4206"/><stop offset=".329" stop-color="#F57C17"/><stop offset="1" stop-color="#FCB729"/></linearGradient><linearGradient id="f" x1="36.659" y1="27.841" x2="36.659" y2="17.959" gradientUnits="userSpaceOnUse"><stop stop-color="#FB9006"/><stop offset="1" stop-color="#FEFEFE"/></linearGradient><radialGradient id="e" cx="0" cy="0" r="1" gradientUnits="userSpaceOnUse" gradientTransform="matrix(7.52561 0 0 7.64472 36.692 28.457)"><stop stop-color="#F3BC57"/><stop offset=".2" stop-color="#F49451"/><stop offset="1" stop-color="#F46D4B"/></radialGradient><radialGradient id="g" cx="0" cy="0" r="1" gradientUnits="userSpaceOnUse" gradientTransform="matrix(5.31958 0 0 6.05512 36.834 31.291)"><stop stop-color="#FED337"/><stop offset="1" stop-color="#FC2D27"/></radialGradient></defs></svg>