<svg width="70" height="70" fill="none" xmlns="http://www.w3.org/2000/svg"><rect width="70" height="70" rx="8" fill="#fff"/><g clip-path="url(#a)"><path d="m34.51 51.006 6.44-19.654H28.07l6.44 19.654Z" fill="#E24329"/><path d="M34.51 51.006 28.07 31.35h-9.025L34.51 51.006Z" fill="#FC6D26"/><path d="m19.046 31.351-1.957 5.973a1.312 1.312 0 0 0 .484 1.479l16.938 12.203-15.465-19.654Z" fill="#FCA326"/><path d="M19.045 31.352h9.025l-3.878-11.838c-.2-.61-1.069-.61-1.268 0l-3.88 11.838Z" fill="#E24329"/><path d="m34.51 51.006 6.44-19.655h9.025L34.51 51.006Z" fill="#FC6D26"/><path d="m49.975 31.351 1.957 5.973a1.312 1.312 0 0 1-.484 1.479L34.51 51.005l15.465-19.654Z" fill="#FCA326"/><path d="M49.977 31.352H40.95l3.879-11.838c.2-.61 1.069-.61 1.268 0l3.879 11.838Z" fill="#E24329"/></g><defs><clipPath id="a"><path fill="#fff" transform="translate(17 19)" d="M0 0h35v32H0z"/></clipPath></defs></svg>