<svg width="70" height="70" fill="none" xmlns="http://www.w3.org/2000/svg"><rect width="70" height="70" rx="8" fill="#fff"/><path d="M38.048 19.01 48 19 31.303 35.627l-4.352 4.311L22 35l16.048-15.988Zm-.093 14.847c.13-.17.367-.086.547-.108l9.49.002-8.649 8.608-4.977-4.928 3.59-3.574Z" fill="#44D1FD"/><path d="m29.406 42.368 4.961-4.937 4.977 4.928.02.022-4.996 4.932-4.962-4.945Z" fill="#1FBCFD"/><path d="m34.367 47.313 4.996-4.932 8.632 8.608c-3.252.007-6.502-.003-9.752.005-.185.04-.3-.128-.417-.232l-3.459-3.45Z" fill="#08589C"/></svg>