<svg width="70" height="70" fill="none" xmlns="http://www.w3.org/2000/svg"><rect width="70" height="70" rx="8" fill="#fff"/><path fill-rule="evenodd" clip-rule="evenodd" d="M49.983 26.24a.525.525 0 0 1 .017.13v6.869a.515.515 0 0 1-.065.25.492.492 0 0 1-.178.184l-5.564 3.32v6.578a.505.505 0 0 1-.241.435l-11.615 6.927c-.026.016-.055.026-.084.037-.011.003-.021.01-.033.013a.471.471 0 0 1-.248 0c-.013-.003-.025-.01-.038-.016-.026-.01-.054-.019-.08-.034l-11.611-6.927a.492.492 0 0 1-.178-.184.515.515 0 0 1-.065-.25V22.964c0-.045.006-.089.017-.131.003-.015.012-.028.017-.042.009-.027.017-.054.03-.078.01-.016.023-.03.034-.044.014-.02.027-.041.043-.059.014-.014.032-.025.048-.037.017-.015.033-.031.053-.043l5.806-3.464a.472.472 0 0 1 .484 0l5.806 3.464h.001c.02.012.036.028.053.042.016.013.034.024.047.038.017.018.03.039.044.059.01.015.024.028.033.044.014.025.021.051.031.078.005.014.013.027.017.042a.52.52 0 0 1 .017.131v12.87l4.838-2.886v-6.58c0-.043.006-.088.017-.13.004-.015.012-.028.017-.042.01-.027.018-.053.031-.078.01-.016.023-.03.033-.044.014-.02.027-.041.043-.059.014-.014.032-.025.048-.037.018-.015.034-.031.053-.043l5.807-3.464a.47.47 0 0 1 .483 0l5.807 3.464c.02.012.036.028.054.042.015.013.033.024.047.038.017.018.029.039.043.059.011.015.024.028.033.044.014.024.021.051.031.078.006.014.014.027.017.042Zm-.95 6.709v-5.712L47 28.45l-2.807 1.675v5.712l4.84-2.887ZM43.225 43.28v-5.715l-2.76 1.635-7.885 4.662v5.77l10.646-6.35ZM20.968 23.832v19.45l10.644 6.35v-5.769l-5.56-3.26-.002-.002-.003-.001c-.018-.012-.034-.028-.052-.042-.015-.012-.032-.022-.046-.036v-.002c-.017-.016-.027-.035-.04-.053-.013-.016-.027-.03-.037-.048v-.002c-.011-.019-.018-.042-.026-.063-.008-.019-.018-.036-.023-.056-.006-.025-.007-.05-.01-.074-.002-.019-.007-.038-.007-.056V26.719L23 25.044l-2.032-1.211Zm5.323-3.752-4.838 2.885 4.837 2.886 4.837-2.886-4.837-2.885Zm2.515 18.007 2.807-1.674v-12.58l-2.032 1.211-2.807 1.675v12.58l2.032-1.212ZM43.71 23.485l-4.837 2.885 4.837 2.885 4.836-2.886-4.836-2.884Zm-.484 6.639-2.807-1.675-2.032-1.212v5.712l2.806 1.674 2.033 1.213v-5.712Zm-11.13 12.871 7.095-4.197 3.546-2.097-4.833-2.883-5.565 3.32-5.072 3.025 4.829 2.832Z" fill="#FF2D20"/></svg>