<svg width="70" height="70" fill="none" xmlns="http://www.w3.org/2000/svg"><rect width="70" height="70" rx="8" fill="#fff"/><path d="M29.25 51c2.898 0 5.25-2.39 5.25-5.333v-5.334h-5.25c-2.896 0-5.248 2.39-5.248 5.334 0 2.944 2.352 5.333 5.249 5.333Z" fill="#0ACF83"/><path d="M24.002 35c0-2.944 2.352-5.333 5.249-5.333H34.5v10.666h-5.25c-2.896 0-5.248-2.39-5.248-5.333Z" fill="#A259FF"/><path d="M24.002 24.333c0-2.944 2.352-5.333 5.249-5.333H34.5v10.667h-5.25c-2.896 0-5.248-2.39-5.248-5.334Z" fill="#F24E1E"/><path d="M34.5 19h5.249c2.897 0 5.249 2.39 5.249 5.333 0 2.944-2.352 5.334-5.249 5.334H34.5V19Z" fill="#FF7262"/><path d="M44.998 35c0 2.944-2.352 5.333-5.249 5.333-2.898 0-5.249-2.39-5.249-5.333 0-2.944 2.352-5.333 5.249-5.333s5.249 2.389 5.249 5.333Z" fill="#1ABCFE"/></svg>