<svg width="70" height="70" fill="none" xmlns="http://www.w3.org/2000/svg"><rect width="70" height="70" rx="8" fill="#fff"/><g clip-path="url(#a)" fill-rule="evenodd" clip-rule="evenodd" fill="#1AB248"><path d="M46.22 44h4.549l1.954-5.662 2.032-1.736 1.6 5.121C56.85 43.306 57.36 44 58.471 44h3.482l-3.592-10.048L67 26h-5.58l-5.244 5.662c-.61.66-1.228 1.308-1.848 2.083h-.053L56.894 26h-4.549l-6.124 18Zm-.196-18 3.968.001-.939 2.972c-.295.934-1.043 1.38-2.694 1.38h-9.973l.939-2.972C37.62 26.447 38.368 26 40.019 26h6.005Zm-8.32 6.823c2.866 0 7.107 0 9.973.002l-.938 2.971c-.295.934-1.044 1.38-2.695 1.38H34.07l.939-2.972c.295-.934 1.044-1.38 2.694-1.38Zm7.545 6.824h-9.973c-1.651 0-2.4.446-2.695 1.38l-.938 2.972 9.973.001c1.65 0 2.4-.447 2.694-1.38l.939-2.973Zm-19.651-9.312 2.441.002c2.08 0 1.605 2.592.553 5.119-.928 2.227-2.572 4.192-4.532 4.192h-4.07c-1.623 0-2.37.446-2.686 1.38l-1.005 2.971 2.984.001 2.916-.024c2.587-.022 4.705-.208 7.181-2.43 2.617-2.346 5.668-8.442 5.146-11.968-.41-2.763-1.897-3.577-5.5-3.577L22.464 26 18.64 37.164l2.428.003c1.446.002 2.17.02 2.94-2.045l1.59-4.787Zm-11.221.015-1.836.002c-3.677.001-6.829 9.297-2.48 9.296h2.793c1.612 0 2.808.587 2.278 2.17L14.402 44H11.44l-2.41-.024c-3.084-.031-5.073-1.548-5.79-3.852-.775-2.493.32-7.692 3.496-11.023 1.844-1.932 4.397-3.1 7.671-3.1L20.454 26l-.945 2.724c-.61 1.76-1.859 1.63-2.571 1.629l-2.561-.002Z"/></g><defs><clipPath id="a"><path fill="#fff" transform="translate(3 26)" d="M0 0h64v18H0z"/></clipPath></defs></svg>