<svg width="152" height="46" viewBox="0 0 152 46" fill="none" xmlns="http://www.w3.org/2000/svg">
<path d="M146.592 46H5.3245C2.38921 46 0 43.5528 0 40.557V5.4349C0 2.438 2.38921 0 5.3245 0H146.592C149.526 0 152 2.438 152 5.4349V40.557C152 43.5528 149.526 46 146.592 46Z" fill="#A6A6A6"/>
<path d="M150.91 40.5581C150.91 42.9915 148.98 44.9626 146.593 44.9626H5.32438C2.93855 44.9626 1.00195 42.9915 1.00195 40.5581V5.43369C1.00195 3.00144 2.93855 1.02344 5.32438 1.02344H146.592C148.98 1.02344 150.909 3.00144 150.909 5.43369L150.91 40.5581Z" fill="black"/>
<path d="M33.9215 22.7516C33.8889 19.0452 36.8928 17.242 37.0302 17.158C35.3289 14.6246 32.692 14.2784 31.7654 14.2508C29.5507 14.0128 27.4024 15.6044 26.2742 15.6044C25.1235 15.6044 23.3862 14.2738 21.5138 14.3129C19.1043 14.3509 16.8502 15.7757 15.6139 17.9883C13.0626 22.4998 14.9654 29.1295 17.4098 32.7762C18.6326 34.5621 20.0614 36.5562 21.9315 36.4861C23.7611 36.409 24.4446 35.2947 26.6525 35.2947C28.8402 35.2947 29.482 36.4861 31.3893 36.4412C33.3529 36.409 34.5892 34.6472 35.7691 32.8452C37.1822 30.7982 37.7497 28.7822 37.7722 28.6787C37.726 28.6626 33.9587 27.1941 33.9215 22.7516Z" fill="white"/>
<path d="M30.3185 11.8518C31.3025 10.5948 31.9758 8.88476 31.7889 7.14941C30.3646 7.21381 28.5834 8.15566 27.5577 9.38501C26.6502 10.4683 25.8395 12.2439 26.0489 13.9137C27.6489 14.0356 29.2916 13.0892 30.3185 11.8518Z" fill="white"/>
<path d="M60.3998 36.23H57.8428L56.4422 31.7346H51.5736L50.2394 36.23H47.75L52.5735 20.9258H55.5527L60.3998 36.23ZM56.0199 29.8486L54.7533 25.8524C54.6193 25.4441 54.3682 24.4827 53.9978 22.9693H53.9527C53.8052 23.6202 53.5677 24.5816 53.2411 25.8524L51.997 29.8486H56.0199Z" fill="white"/>
<path d="M72.8051 30.5763C72.8051 32.4531 72.3085 33.9366 71.3155 35.0257C70.426 35.9951 69.3215 36.4793 68.003 36.4793C66.5798 36.4793 65.5575 35.9572 64.9348 34.913H64.8898V40.7262H62.4893V28.8272C62.4893 27.6473 62.4589 26.4363 62.4004 25.1943H64.5115L64.6455 26.9435H64.6905C65.4911 25.6256 66.7059 24.9678 68.3363 24.9678C69.6108 24.9678 70.6748 25.4818 71.526 26.5111C72.3795 27.5415 72.8051 28.8962 72.8051 30.5763ZM70.3596 30.666C70.3596 29.5919 70.1231 28.7064 69.648 28.0095C69.1289 27.2827 68.432 26.9193 67.5583 26.9193C66.966 26.9193 66.4278 27.1217 65.9471 27.5208C65.4652 27.9233 65.1499 28.4488 65.0024 29.0997C64.9281 29.4033 64.8909 29.6517 64.8909 29.8472V31.6872C64.8909 32.4899 65.1319 33.1673 65.6138 33.7204C66.0957 34.2736 66.7217 34.5496 67.4918 34.5496C68.3959 34.5496 69.0996 34.1931 69.6029 33.4824C70.1074 32.7705 70.3596 31.8321 70.3596 30.666Z" fill="white"/>
<path d="M85.2317 30.5763C85.2317 32.4531 84.7351 33.9366 83.741 35.0257C82.8526 35.9951 81.7481 36.4793 80.4296 36.4793C79.0064 36.4793 77.9841 35.9572 77.3626 34.913H77.3175V40.7262H74.9171V28.8272C74.9171 27.6473 74.8867 26.4363 74.8281 25.1943H76.9392L77.0732 26.9435H77.1183C77.9177 25.6256 79.1325 24.9678 80.764 24.9678C82.0374 24.9678 83.1014 25.4818 83.9549 26.5111C84.805 27.5415 85.2317 28.8962 85.2317 30.5763ZM82.7862 30.666C82.7862 29.5919 82.5486 28.7064 82.0735 28.0095C81.5544 27.2827 80.8597 26.9193 79.9849 26.9193C79.3915 26.9193 78.8544 27.1217 78.3725 27.5208C77.8906 27.9233 77.5765 28.4488 77.429 29.0997C77.3558 29.4033 77.3175 29.6517 77.3175 29.8472V31.6872C77.3175 32.4899 77.5585 33.1673 78.0381 33.7204C78.52 34.2724 79.1461 34.5496 79.9184 34.5496C80.8226 34.5496 81.5263 34.1931 82.0296 33.4824C82.534 32.7705 82.7862 31.8321 82.7862 30.666Z" fill="white"/>
<path d="M99.1257 31.9378C99.1257 33.2396 98.6832 34.2988 97.7949 35.1164C96.8187 36.01 95.4597 36.4562 93.7134 36.4562C92.1011 36.4562 90.8085 36.1388 89.8301 35.5028L90.3863 33.4593C91.4402 34.1102 92.5965 34.4368 93.8564 34.4368C94.7605 34.4368 95.4642 34.2275 95.9698 33.8112C96.473 33.3949 96.7241 32.836 96.7241 32.1391C96.7241 31.5181 96.517 30.9948 96.1015 30.5705C95.6883 30.1461 94.9981 29.7517 94.0343 29.3871C91.4109 28.3878 90.1003 26.9238 90.1003 24.9987C90.1003 23.7406 90.5597 22.7091 91.4796 21.9064C92.3961 21.1025 93.6188 20.7012 95.1478 20.7012C96.5113 20.7012 97.644 20.9438 98.5481 21.428L97.948 23.4267C97.1036 22.9575 96.1488 22.7229 95.0803 22.7229C94.2358 22.7229 93.576 22.9356 93.1032 23.3588C92.7034 23.7372 92.503 24.1983 92.503 24.7446C92.503 25.3495 92.7316 25.8497 93.191 26.243C93.5907 26.6064 94.3169 26.9997 95.3708 27.4241C96.66 27.9542 97.6069 28.5741 98.216 29.2848C98.8229 29.9932 99.1257 30.8798 99.1257 31.9378Z" fill="white"/>
<path d="M107.062 27.034H104.416V32.3918C104.416 33.7546 104.883 34.4354 105.817 34.4354C106.246 34.4354 106.602 34.3974 106.883 34.3215L106.95 36.1834C106.477 36.3639 105.854 36.4548 105.083 36.4548C104.135 36.4548 103.394 36.1592 102.859 35.5693C102.327 34.9782 102.059 33.9869 102.059 32.5942V27.0317H100.482V25.1917H102.059V23.1711L104.416 22.4443V25.1917H107.062V27.034Z" fill="white"/>
<path d="M119.001 30.621C119.001 32.3173 118.525 33.7099 117.577 34.799C116.583 35.9202 115.264 36.4791 113.619 36.4791C112.033 36.4791 110.771 35.942 109.83 34.8679C108.889 33.7938 108.418 32.438 108.418 30.8038C108.418 29.0938 108.902 27.6931 109.874 26.6041C110.843 25.5139 112.152 24.9688 113.797 24.9688C115.382 24.9688 116.657 25.5058 117.62 26.5811C118.541 27.6241 119.001 28.9708 119.001 30.621ZM116.51 30.7003C116.51 29.6826 116.297 28.8098 115.866 28.0818C115.363 27.2009 114.643 26.7616 113.711 26.7616C112.746 26.7616 112.013 27.2021 111.51 28.0818C111.079 28.8109 110.866 29.6976 110.866 30.7464C110.866 31.7641 111.079 32.6369 111.51 33.3637C112.029 34.2446 112.754 34.6839 113.69 34.6839C114.606 34.6839 115.326 34.2355 115.845 33.3408C116.287 32.599 116.51 31.7169 116.51 30.7003Z" fill="white"/>
<path d="M126.802 27.3506C126.564 27.3057 126.311 27.2827 126.045 27.2827C125.201 27.2827 124.548 27.6082 124.089 28.2602C123.689 28.8352 123.488 29.562 123.488 30.4395V36.2297H121.089L121.112 28.6696C121.112 27.3977 121.081 26.2397 121.021 25.1955H123.112L123.2 27.3069H123.267C123.52 26.5812 123.92 25.997 124.467 25.5589C125.002 25.1644 125.579 24.9678 126.202 24.9678C126.424 24.9678 126.624 24.9839 126.802 25.0126V27.3506Z" fill="white"/>
<path d="M137.537 30.1901C137.537 30.6294 137.509 30.9997 137.45 31.3022H130.248C130.276 32.3924 130.624 33.2261 131.293 33.8011C131.9 34.3152 132.685 34.5728 133.649 34.5728C134.715 34.5728 135.688 34.3991 136.562 34.0507L136.938 35.7527C135.916 36.2081 134.709 36.4346 133.316 36.4346C131.641 36.4346 130.326 35.9309 129.369 34.9247C128.414 33.9184 127.936 32.5672 127.936 30.8721C127.936 29.208 128.38 27.8223 129.271 26.7171C130.203 25.5372 131.463 24.9473 133.048 24.9473C134.606 24.9473 135.784 25.5372 136.585 26.7171C137.219 27.6544 137.537 28.8136 137.537 30.1901ZM135.248 29.5542C135.264 28.8274 135.108 28.1995 134.782 27.6693C134.367 26.9874 133.728 26.647 132.869 26.647C132.085 26.647 131.446 26.9793 130.959 27.6463C130.559 28.1765 130.321 28.8124 130.248 29.553H135.248V29.5542Z" fill="white"/>
<path d="M55.2265 11.5105C55.2265 12.864 54.8291 13.8829 54.0353 14.5672C53.3001 15.1985 52.2552 15.5148 50.9018 15.5148C50.2308 15.5148 49.6566 15.4849 49.1758 15.4251V8.02945C49.8029 7.92595 50.4785 7.87305 51.2081 7.87305C52.4973 7.87305 53.4689 8.1594 54.1242 8.7321C54.8583 9.37955 55.2265 10.3053 55.2265 11.5105ZM53.9824 11.5438C53.9824 10.6664 53.7549 9.99365 53.3001 9.52445C52.8452 9.0564 52.1809 8.8218 51.306 8.8218C50.9345 8.8218 50.6181 8.8471 50.3558 8.9V14.5223C50.501 14.5453 50.7667 14.5557 51.1529 14.5557C52.0559 14.5557 52.7529 14.2992 53.2438 13.7863C53.7347 13.2734 53.9824 12.5259 53.9824 11.5438Z" fill="white"/>
<path d="M61.8234 12.6921C61.8234 13.5259 61.5903 14.209 61.1242 14.7449C60.6355 15.2957 59.9881 15.5706 59.1797 15.5706C58.4006 15.5706 57.7802 15.3072 57.3174 14.7782C56.8558 14.2504 56.625 13.5845 56.625 12.7818C56.625 11.9423 56.8626 11.2535 57.34 10.7187C57.8174 10.184 58.4591 9.91602 59.2675 9.91602C60.0467 9.91602 60.6727 10.1794 61.1467 10.7072C61.5971 11.2201 61.8234 11.8825 61.8234 12.6921ZM60.5995 12.7312C60.5995 12.231 60.4937 11.802 60.2831 11.4444C60.0354 11.012 59.683 10.7958 59.2248 10.7958C58.7508 10.7958 58.3905 11.012 58.1427 11.4444C57.9311 11.802 57.8264 12.2379 57.8264 12.7531C57.8264 13.2533 57.9322 13.6823 58.1427 14.0399C58.3983 14.4723 58.7541 14.6885 59.2135 14.6885C59.6639 14.6885 60.0174 14.4689 60.2719 14.0284C60.4903 13.6639 60.5995 13.2315 60.5995 12.7312Z" fill="white"/>
<path d="M70.6686 10.0264L69.0078 15.4475H67.927L67.239 13.0934C67.0645 12.5058 66.9226 11.9216 66.8123 11.342H66.7909C66.6884 11.9377 66.5466 12.5207 66.3642 13.0934L65.6334 15.4475H64.5402L62.9785 10.0264H64.1911L64.7913 12.6035C64.9365 13.213 65.0558 13.7938 65.1516 14.3435H65.1729C65.2608 13.8904 65.406 13.3131 65.6109 12.615L66.3642 10.0275H67.3257L68.0474 12.5598C68.222 13.1774 68.3638 13.7719 68.473 14.3446H68.5057C68.5856 13.7869 68.7061 13.1923 68.866 12.5598L69.51 10.0275H70.6686V10.0264Z" fill="white"/>
<path d="M76.7851 15.448H75.6052V12.343C75.6052 11.3862 75.2494 10.9078 74.5355 10.9078C74.1854 10.9078 73.9028 11.0389 73.6832 11.3023C73.4659 11.5656 73.3556 11.8761 73.3556 12.2315V15.4469H72.1756V11.576C72.1756 11.0999 72.161 10.5835 72.1328 10.0246H73.1698L73.225 10.8722H73.2576C73.395 10.6088 73.5999 10.3915 73.869 10.2178C74.1888 10.0154 74.5468 9.91309 74.9386 9.91309C75.434 9.91309 75.8461 10.0764 76.1738 10.4041C76.5813 10.8055 76.7851 11.4046 76.7851 12.2004V15.448Z" fill="white"/>
<path d="M80.0402 15.4476H78.8613V7.53906H80.0402V15.4476Z" fill="white"/>
<path d="M86.9875 12.6921C86.9875 13.5259 86.7544 14.209 86.2883 14.7449C85.7996 15.2957 85.1511 15.5706 84.3438 15.5706C83.5635 15.5706 82.9431 15.3072 82.4815 14.7782C82.0199 14.2504 81.7891 13.5845 81.7891 12.7818C81.7891 11.9423 82.0266 11.2535 82.504 10.7187C82.9814 10.184 83.6232 9.91602 84.4305 9.91602C85.2108 9.91602 85.8356 10.1794 86.3108 10.7072C86.7611 11.2201 86.9875 11.8825 86.9875 12.6921ZM85.7625 12.7312C85.7625 12.231 85.6566 11.802 85.4461 11.4444C85.1995 11.012 84.8459 10.7958 84.3888 10.7958C83.9137 10.7958 83.5534 11.012 83.3068 11.4444C83.0951 11.802 82.9904 12.2379 82.9904 12.7531C82.9904 13.2533 83.0963 13.6823 83.3068 14.0399C83.5624 14.4723 83.9182 14.6885 84.3776 14.6885C84.8279 14.6885 85.1804 14.4689 85.4348 14.0284C85.6544 13.6639 85.7625 13.2315 85.7625 12.7312Z" fill="white"/>
<path d="M92.6972 15.4475H91.6377L91.5499 14.8231H91.5172C91.1547 15.321 90.6379 15.5706 89.9668 15.5706C89.4658 15.5706 89.0604 15.4061 88.7553 15.0795C88.4783 14.7828 88.3398 14.4137 88.3398 13.9755C88.3398 13.3131 88.6101 12.8083 89.1539 12.4587C89.6966 12.1091 90.46 11.9377 91.4429 11.9458V11.8446C91.4429 11.1304 91.0758 10.7739 90.3406 10.7739C89.8171 10.7739 89.3554 10.9085 88.9569 11.1753L88.717 10.3841C89.2102 10.0724 89.8193 9.91602 90.5377 9.91602C91.9248 9.91602 92.6206 10.6635 92.6206 12.1585V14.1549C92.6206 14.6966 92.6465 15.1278 92.6972 15.4475ZM91.4722 13.5845V12.7485C90.1706 12.7255 89.5198 13.09 89.5198 13.841C89.5198 14.1239 89.5941 14.3355 89.7461 14.4769C89.8981 14.6184 90.0918 14.6885 90.3226 14.6885C90.5816 14.6885 90.8236 14.6046 91.0443 14.4378C91.2661 14.2699 91.4024 14.0572 91.453 13.7961C91.4654 13.7375 91.4722 13.6662 91.4722 13.5845Z" fill="white"/>
<path d="M99.4026 15.4476H98.3555L98.3003 14.5771H98.2677C97.9333 15.2395 97.3635 15.5707 96.563 15.5707C95.9235 15.5707 95.3909 15.3142 94.9687 14.8013C94.5465 14.2884 94.3359 13.6226 94.3359 12.8049C94.3359 11.9275 94.5645 11.2168 95.0239 10.674C95.4686 10.168 96.0136 9.91496 96.6621 9.91496C97.3748 9.91496 97.8736 10.1599 98.1573 10.651H98.1798V7.53906H99.3609V13.9871C99.3609 14.515 99.3745 15.0014 99.4026 15.4476ZM98.1798 13.1614V12.2575C98.1798 12.1011 98.1686 11.9746 98.1472 11.878C98.0808 11.5882 97.9378 11.3444 97.7205 11.1478C97.5009 10.9511 97.2363 10.8522 96.9312 10.8522C96.491 10.8522 96.1464 11.0305 95.8931 11.3881C95.642 11.7458 95.5148 12.2023 95.5148 12.7601C95.5148 13.296 95.6353 13.7307 95.8773 14.0653C96.1329 14.4218 96.4774 14.6001 96.9087 14.6001C97.296 14.6001 97.6056 14.4517 97.8409 14.1539C98.0684 13.879 98.1798 13.5478 98.1798 13.1614Z" fill="white"/>
<path d="M109.493 12.6921C109.493 13.5259 109.26 14.209 108.794 14.7449C108.305 15.2957 107.659 15.5706 106.85 15.5706C106.072 15.5706 105.451 15.3072 104.987 14.7782C104.526 14.2504 104.295 13.5845 104.295 12.7818C104.295 11.9423 104.532 11.2535 105.01 10.7187C105.487 10.184 106.129 9.91602 106.939 9.91602C107.717 9.91602 108.344 10.1794 108.817 10.7072C109.267 11.2201 109.493 11.8825 109.493 12.6921ZM108.271 12.7312C108.271 12.231 108.165 11.802 107.954 11.4444C107.705 11.012 107.354 10.7958 106.895 10.7958C106.422 10.7958 106.061 11.012 105.813 11.4444C105.601 11.802 105.496 12.2379 105.496 12.7531C105.496 13.2533 105.602 13.6823 105.813 14.0399C106.068 14.4723 106.424 14.6885 106.883 14.6885C107.334 14.6885 107.688 14.4689 107.943 14.0284C108.16 13.6639 108.271 13.2315 108.271 12.7312Z" fill="white"/>
<path d="M115.839 15.448H114.66V12.343C114.66 11.3862 114.304 10.9078 113.589 10.9078C113.239 10.9078 112.956 11.0389 112.738 11.3023C112.519 11.5656 112.41 11.8761 112.41 12.2315V15.4469H111.229V11.576C111.229 11.0999 111.216 10.5835 111.188 10.0246H112.223L112.279 10.8722H112.311C112.45 10.6088 112.655 10.3915 112.923 10.2178C113.243 10.0154 113.6 9.91309 113.993 9.91309C114.488 9.91309 114.9 10.0764 115.227 10.4041C115.636 10.8055 115.839 11.4046 115.839 12.2004V15.448Z" fill="white"/>
<path d="M123.779 10.9296H122.48V13.5631C122.48 14.2324 122.711 14.5671 123.168 14.5671C123.38 14.5671 123.555 14.5487 123.694 14.5107L123.724 15.425C123.491 15.5147 123.185 15.5595 122.808 15.5595C122.342 15.5595 121.979 15.4146 121.717 15.1248C121.453 14.835 121.323 14.3474 121.323 13.6632V10.9296H120.547V10.0269H121.323V9.03326L122.479 8.67676V10.0257H123.778V10.9296H123.779Z" fill="white"/>
<path d="M130.026 15.4476H128.844V12.3656C128.844 11.3939 128.489 10.9074 127.776 10.9074C127.229 10.9074 126.855 11.1892 126.65 11.7527C126.615 11.8711 126.595 12.016 126.595 12.1862V15.4465H125.416V7.53906H126.595V10.8062H126.617C126.989 10.2117 127.521 9.91496 128.212 9.91496C128.7 9.91496 129.105 10.0783 129.425 10.406C129.825 10.8143 130.026 11.4215 130.026 12.2242V15.4476Z" fill="white"/>
<path d="M136.471 12.4811C136.471 12.6973 136.455 12.879 136.427 13.0273H132.888C132.904 13.5632 133.073 13.9715 133.4 14.2544C133.7 14.5074 134.086 14.6339 134.559 14.6339C135.082 14.6339 135.56 14.5488 135.99 14.3774L136.175 15.2146C135.671 15.4377 135.079 15.5493 134.393 15.5493C133.571 15.5493 132.924 15.3021 132.456 14.8075C131.985 14.313 131.752 13.6495 131.752 12.8169C131.752 11.9993 131.969 11.3184 132.407 10.7756C132.864 10.196 133.483 9.90625 134.263 9.90625C135.026 9.90625 135.606 10.196 135.998 10.7756C136.314 11.2356 136.471 11.8049 136.471 12.4811ZM135.345 12.1694C135.354 11.8118 135.276 11.5036 135.116 11.2437C134.911 10.9091 134.599 10.7411 134.177 10.7411C133.792 10.7411 133.478 10.9044 133.238 11.2322C133.042 11.4932 132.926 11.8049 132.888 12.1694H135.345Z" fill="white"/>
</svg>
