<svg width="48" height="48" viewBox="0 0 48 48" fill="none" xmlns="http://www.w3.org/2000/svg">
<rect width="48" height="48" rx="8" fill="white"/>
<path fill-rule="evenodd" clip-rule="evenodd" d="M28.5134 33.4998H20.1655C17.0992 33.4998 14.7468 32.3922 15.415 27.9346L16.193 21.8934C16.6049 19.6691 18.0237 18.8179 19.2685 18.8179H29.447C30.7102 18.8179 32.0466 19.7332 32.5225 21.8934L33.3006 27.9346C33.8681 31.8888 31.5797 33.4998 28.5134 33.4998Z" stroke="#ED5E4C" stroke-width="1.5" stroke-linecap="round" stroke-linejoin="round"/>
<path d="M28.6512 18.5982C28.6512 16.2122 26.7169 14.2779 24.3309 14.2779V14.2779C23.1819 14.273 22.0782 14.726 21.2641 15.5368C20.4499 16.3475 19.9922 17.4492 19.9922 18.5982V18.5982" stroke="#ED5E4C" stroke-width="1.5" stroke-linecap="round" stroke-linejoin="round"/>
<path d="M27.297 23.1017H27.2512" stroke="#ED5E4C" stroke-width="1.5" stroke-linecap="round" stroke-linejoin="round"/>
<path d="M21.4649 23.1017H21.4192" stroke="#ED5E4C" stroke-width="1.5" stroke-linecap="round" stroke-linejoin="round"/>
</svg>
