<svg width="156" height="46" viewBox="0 0 156 46" fill="none" xmlns="http://www.w3.org/2000/svg">
<path fill-rule="evenodd" clip-rule="evenodd" d="M150.22 46H5.7799C2.59436 46 0 43.4075 0 40.25V5.75C0 2.58105 2.59436 0 5.7799 0H150.22C153.403 0 156 2.58105 156 5.75V40.25C156 43.4075 153.403 46 150.22 46Z" fill="black"/>
<path fill-rule="evenodd" clip-rule="evenodd" d="M150.22 0.920573C152.892 0.920573 155.079 3.09152 155.079 5.75V40.25C155.079 42.9085 152.906 45.0794 150.22 45.0794H5.7799C3.10806 45.0794 0.921226 42.9085 0.921226 40.25V5.75C0.921226 3.09152 3.09371 0.920573 5.7799 0.920573H150.22ZM150.22 0H5.7799C2.59436 0 0 2.59252 0 5.75V40.25C0 43.419 2.59436 46 5.7799 46H150.22C153.403 46 156 43.419 156 40.25V5.75C156 2.59252 153.403 0 150.22 0Z" fill="#A6A6A6"/>
<path d="M82.1818 15.2166C81.1401 15.2166 80.2619 14.8523 79.5674 14.1354C78.8786 13.4385 78.494 12.4778 78.5113 11.497C78.5113 10.4502 78.8671 9.56406 79.5674 8.86145C80.259 8.14449 81.1372 7.78027 82.1789 7.78027C83.2092 7.78027 84.0874 8.14449 84.7934 8.86145C85.4936 9.58701 85.8495 10.4732 85.8495 11.497C85.838 12.5466 85.4822 13.4328 84.7934 14.1325C84.1018 14.8552 83.2236 15.2166 82.1818 15.2166ZM51.1844 15.2166C50.1656 15.2166 49.2817 14.8581 48.5585 14.1497C47.841 13.4442 47.4766 12.5523 47.4766 11.4998C47.4766 10.4474 47.841 9.55546 48.5585 8.84997C49.2674 8.14162 50.1513 7.78314 51.1844 7.78314C51.6895 7.78314 52.1803 7.88352 52.6509 8.08713C53.113 8.28501 53.4889 8.55459 53.7673 8.88439L53.8362 8.96756L53.0584 9.7304L52.9781 9.63576C52.539 9.11381 51.9507 8.85858 51.1729 8.85858C50.4784 8.85858 49.8729 9.10521 49.3735 9.59274C48.8713 10.0831 48.6159 10.7255 48.6159 11.5027C48.6159 12.2799 48.8713 12.9223 49.3735 13.4127C49.8729 13.9002 50.4784 14.1469 51.1729 14.1469C51.9134 14.1469 52.5361 13.9002 53.0211 13.4127C53.3081 13.1259 53.4861 12.7244 53.5492 12.2168H51.0553V11.1442H54.6196L54.634 11.2417C54.6598 11.4224 54.6857 11.6088 54.6857 11.7809C54.6857 12.7703 54.3872 13.5704 53.796 14.1612C53.1245 14.8609 52.2463 15.2166 51.1844 15.2166ZM92.3985 15.0646H91.2994L87.933 9.68165L87.9617 10.651V15.0617H86.8626V7.93514H88.1167L88.1511 7.98963L91.3166 13.0599L91.2879 12.0935V7.93514H92.3985V15.0646ZM73.9223 15.0646H72.8088V9.00771H70.8774V7.93514H75.8509V9.00771H73.9195V15.0646H73.9223ZM69.9706 15.0646H68.8599V7.93514H69.9706V15.0646ZM63.7286 15.0646H62.618V9.00771H60.6865V7.93514H65.66V9.00771H63.7286V15.0646ZM59.9834 15.0531H55.7245V7.93514H59.9834V9.00771H56.8381V10.9636H59.6763V12.0247H56.8381V13.9805H59.9834V15.0531ZM80.3824 13.3984C80.8789 13.8945 81.4816 14.144 82.1818 14.144C82.9022 14.144 83.4905 13.9002 83.9812 13.3984C84.4691 12.9108 84.7159 12.2713 84.7159 11.4998C84.7159 10.7284 84.4691 10.086 83.9841 9.60135C83.4876 9.10521 82.8821 8.85571 82.1847 8.85571C81.4643 8.85571 80.876 9.09948 80.3882 9.60135C79.9003 10.0889 79.6535 10.7284 79.6535 11.4998C79.6535 12.2713 79.8974 12.9137 80.3824 13.3984Z" fill="white"/>
<path fill-rule="evenodd" clip-rule="evenodd" d="M78.4073 25.0186C75.6953 25.0186 73.497 27.0748 73.497 29.9111C73.497 32.7216 75.7096 34.8036 78.4073 34.8036C81.1193 34.8036 83.3176 32.733 83.3176 29.9111C83.3176 27.0748 81.1193 25.0186 78.4073 25.0186ZM78.4073 32.865C76.9236 32.865 75.6465 31.6375 75.6465 29.8996C75.6465 28.1359 76.9265 26.9343 78.4073 26.9343C79.891 26.9343 81.1681 28.1359 81.1681 29.8996C81.171 31.649 79.891 32.865 78.4073 32.865ZM67.6941 25.0186C64.9821 25.0186 62.7838 27.0748 62.7838 29.9111C62.7838 32.7216 64.9964 34.8036 67.6941 34.8036C70.4061 34.8036 72.6044 32.733 72.6044 29.9111C72.6044 27.0748 70.4033 25.0186 67.6941 25.0186ZM67.6941 32.865C66.2104 32.865 64.9333 31.6375 64.9333 29.8996C64.9333 28.1359 66.2133 26.9343 67.6941 26.9343C69.1778 26.9343 70.4549 28.1359 70.4549 29.8996C70.4549 31.649 69.1778 32.865 67.6941 32.865ZM54.9462 26.5127V28.5833H59.9196C59.7675 29.7448 59.383 30.6023 58.7947 31.1902C58.0657 31.9186 56.9407 32.7101 54.9577 32.7101C51.9013 32.7101 49.5107 30.2438 49.5107 27.1895C49.5107 24.1353 51.9013 21.669 54.9577 21.669C56.6078 21.669 57.8103 22.32 58.7028 23.1516L60.1722 21.6833C58.9324 20.496 57.2822 19.5869 54.9691 19.5869C50.7763 19.5869 47.2578 22.9996 47.2578 27.1781C47.2578 31.368 50.7734 34.7692 54.9691 34.7692C57.2335 34.7692 58.9324 34.0293 60.2755 32.6355C61.6444 31.2676 62.0778 29.3375 62.0778 27.7803C62.0778 27.2956 62.0405 26.8597 61.963 26.4898H54.9433C54.9462 26.4869 54.9462 26.5127 54.9462 26.5127ZM107.089 28.1244C106.678 27.0261 105.439 25.0071 102.896 25.0071C100.376 25.0071 98.2811 26.9888 98.2811 29.8996C98.2811 32.647 100.353 34.7921 103.14 34.7921C105.378 34.7921 106.681 33.4242 107.218 32.6212L105.556 31.5085C105.005 32.3258 104.239 32.8621 103.151 32.8621C102.052 32.8621 101.283 32.3631 100.772 31.3794L107.318 28.6693C107.318 28.6722 107.089 28.1244 107.089 28.1244ZM100.413 29.7591C100.362 27.8692 101.883 26.9085 102.97 26.9085C103.829 26.9085 104.543 27.3301 104.787 27.9438L100.413 29.7591ZM95.0956 34.4996H97.2451V20.1261H95.0956V34.4996ZM91.5656 26.1055H91.4881C91.0031 25.5291 90.0819 25.0071 88.9053 25.0071C86.463 25.0071 84.213 27.1551 84.213 29.914C84.213 32.6614 86.4515 34.7835 88.9053 34.7835C90.0676 34.7835 91.0031 34.2587 91.4881 33.6708H91.5656V34.3734C91.5656 36.2404 90.5669 37.247 88.9569 37.247C87.6397 37.247 86.8217 36.3006 86.4888 35.5091L84.6206 36.2892C85.1572 37.5797 86.5893 39.1771 88.9541 39.1771C91.4738 39.1771 93.609 37.6944 93.609 34.0781V25.2996H91.5771V26.1055C91.58 26.1055 91.5656 26.1055 91.5656 26.1055ZM89.0975 32.865C87.6138 32.865 86.374 31.6261 86.374 29.914C86.374 28.1875 87.6138 26.9372 89.0975 26.9372C90.5669 26.9372 91.7063 28.2019 91.7063 29.914C91.7206 31.6261 90.5698 32.865 89.0975 32.865ZM117.153 20.1261H112.013V34.4996H114.163V29.0565H117.156C119.535 29.0565 121.874 27.3329 121.874 24.597C121.874 21.8611 119.544 20.1261 117.153 20.1261ZM117.216 27.049H114.16V22.1163H117.216C118.826 22.1163 119.736 23.4441 119.736 24.5827C119.736 25.7097 118.815 27.049 117.216 27.049ZM130.49 24.9928C128.928 24.9928 127.318 25.6839 126.653 27.1895L128.558 27.9811C128.969 27.1895 129.72 26.92 130.515 26.92C131.629 26.92 132.754 27.5853 132.78 28.7726V28.9246C132.395 28.7066 131.551 28.3739 130.541 28.3739C128.484 28.3739 126.397 29.4981 126.397 31.606C126.397 33.536 128.085 34.7749 129.964 34.7749C131.408 34.7749 132.203 34.1239 132.699 33.3697H132.777V34.4824H134.849V28.9762C134.849 26.4124 132.943 24.9928 130.49 24.9928ZM130.22 32.865C129.517 32.865 128.532 32.5208 128.532 31.6375C128.532 30.5248 129.761 30.1032 130.808 30.1032C131.755 30.1032 132.203 30.3069 132.765 30.5879C132.61 31.8784 131.52 32.8535 130.22 32.865ZM142.408 25.2996L139.94 31.5343H139.863L137.306 25.2996H134.992L138.829 34.015L136.643 38.8587H138.881L144.784 25.2996H142.408ZM123.06 34.4996H125.209V20.1261H123.06V34.4996Z" fill="white"/>
<path fill-rule="evenodd" clip-rule="evenodd" d="M12.0076 8.66337C11.6747 9.02185 11.4824 9.5696 11.4824 10.2866V35.7156C11.4824 36.4326 11.6747 36.9803 12.0191 37.3245L12.1081 37.4019L26.3655 23.1545V22.8362L12.0966 8.58594L12.0076 8.66337Z" fill="url(#paint0_linear_46_27099)"/>
<path fill-rule="evenodd" clip-rule="evenodd" d="M31.1089 27.9187L26.3535 23.1667V22.834L31.1089 18.082L31.2122 18.1451L36.8371 21.3399C38.4471 22.2461 38.4471 23.7431 36.8371 24.6608L31.2122 27.8556L31.1089 27.9187Z" fill="url(#paint1_linear_46_27099)"/>
<path fill-rule="evenodd" clip-rule="evenodd" d="M31.2129 27.8552L26.3543 23L12.0078 37.3363C12.533 37.8984 13.414 37.9615 14.3984 37.4137L31.2129 27.8552Z" fill="url(#paint2_linear_46_27099)"/>
<path fill-rule="evenodd" clip-rule="evenodd" d="M31.2129 18.1448L14.3984 8.60067C13.414 8.03857 12.5301 8.11601 12.0078 8.6781L26.3543 23L31.2129 18.1448Z" fill="url(#paint3_linear_46_27099)"/>
<path opacity="0.2" fill-rule="evenodd" clip-rule="evenodd" d="M31.1099 27.752L14.4101 37.233C13.4774 37.7693 12.6452 37.732 12.1085 37.2445L12.0195 37.3334L12.1085 37.4108C12.6452 37.8955 13.4774 37.9356 14.4101 37.3993L31.2247 27.8552L31.1099 27.752Z" fill="black"/>
<path opacity="0.12" fill-rule="evenodd" clip-rule="evenodd" d="M36.8383 24.4941L31.0957 27.752L31.199 27.8552L36.8239 24.6605C37.6304 24.2016 38.0264 23.5994 38.0264 23C37.9776 23.5506 37.5672 24.0726 36.8383 24.4941Z" fill="black"/>
<path opacity="0.25" fill-rule="evenodd" clip-rule="evenodd" d="M14.3982 8.76713L36.8377 21.506C37.5666 21.9161 37.977 22.4524 38.0401 23.0002C38.0401 22.4008 37.6441 21.7985 36.8377 21.3397L14.3982 8.6008C12.7882 7.68022 11.4824 8.4488 11.4824 10.2871V10.4534C11.4824 8.61227 12.7882 7.85803 14.3982 8.76713Z" fill="white"/>
<defs>
<linearGradient id="paint0_linear_46_27099" x1="25.0867" y1="10.0122" x2="2.25079" y2="16.1012" gradientUnits="userSpaceOnUse">
<stop stop-color="#00A0FF"/>
<stop offset="0.00657" stop-color="#00A1FF"/>
<stop offset="0.2601" stop-color="#00BEFF"/>
<stop offset="0.5122" stop-color="#00D2FF"/>
<stop offset="0.7604" stop-color="#00DFFF"/>
<stop offset="1" stop-color="#00E3FF"/>
</linearGradient>
<linearGradient id="paint1_linear_46_27099" x1="38.9367" y1="23.0004" x2="11.0906" y2="23.0004" gradientUnits="userSpaceOnUse">
<stop stop-color="#FFE000"/>
<stop offset="0.4087" stop-color="#FFBD00"/>
<stop offset="0.7754" stop-color="#FFA500"/>
<stop offset="1" stop-color="#FF9C00"/>
</linearGradient>
<linearGradient id="paint2_linear_46_27099" x1="28.571" y1="25.6419" x2="10.2559" y2="56.4896" gradientUnits="userSpaceOnUse">
<stop stop-color="#FF3A44"/>
<stop offset="1" stop-color="#C31162"/>
</linearGradient>
<linearGradient id="paint3_linear_46_27099" x1="8.39522" y1="0.205657" x2="16.5663" y2="13.9827" gradientUnits="userSpaceOnUse">
<stop stop-color="#32A071"/>
<stop offset="0.0685" stop-color="#2DA771"/>
<stop offset="0.4762" stop-color="#15CF74"/>
<stop offset="0.8009" stop-color="#06E775"/>
<stop offset="1" stop-color="#00F076"/>
</linearGradient>
</defs>
</svg>
