<svg width="48" height="48" viewBox="0 0 48 48" fill="none" xmlns="http://www.w3.org/2000/svg">
<rect width="48" height="48" rx="8" fill="#ED5E4C"/>
<path fill-rule="evenodd" clip-rule="evenodd" d="M29.2787 25.8887C29.9534 25.8887 30.5197 26.4455 30.4166 27.1118C29.8113 31.0318 26.4555 33.9423 22.4081 33.9423C17.9303 33.9423 14.3008 30.3129 14.3008 25.836C14.3008 22.1476 17.1029 18.7118 20.2576 17.935C20.9355 17.7676 21.6303 18.2444 21.6303 18.9423C21.6303 23.6708 21.7892 24.8939 22.6871 25.5592C23.585 26.2244 24.6408 25.8887 29.2787 25.8887Z" stroke="white" stroke-width="2" stroke-linecap="round" stroke-linejoin="round"/>
<path fill-rule="evenodd" clip-rule="evenodd" d="M33.6941 21.9512C33.7478 18.9133 30.0162 14.0165 25.4688 14.1007C25.1151 14.107 24.832 14.4017 24.8162 14.7544C24.7015 17.2523 24.8562 20.4891 24.9425 21.9565C24.9688 22.4133 25.3278 22.7723 25.7836 22.7986C27.292 22.8849 30.6467 23.0028 33.1088 22.6302C33.4436 22.5796 33.6888 22.2891 33.6941 21.9512Z" stroke="white" stroke-width="2" stroke-linecap="round" stroke-linejoin="round"/>
</svg>
