<svg width="70" height="70" viewBox="0 0 70 70" fill="none" xmlns="http://www.w3.org/2000/svg">
<rect width="70" height="70" rx="8" fill="white"/>
<path fill-rule="evenodd" clip-rule="evenodd" d="M34.0983 50.6133C41.8808 50.6133 48.1888 44.2222 48.1888 36.3378C48.1888 33.5707 47.4119 30.9893 46.0674 28.8018C46.0727 28.9342 46.0762 29.0658 46.0762 29.1991C46.0762 35.1129 41.3439 39.9058 35.507 39.9058C31.9128 39.9058 28.7377 38.088 26.829 35.3102C26.0082 34.1164 25.3605 32.7555 25.1364 31.264C24.7541 28.7155 23.6038 26.4293 21.8269 24.7635C22.0185 25.448 22.1213 26.1689 22.1213 26.9147C22.1213 27.8969 22.015 28.8684 21.6178 29.704C20.6599 31.7218 20.0078 33.9431 20.0078 36.3369C20.0078 44.2213 26.3166 50.6124 34.0983 50.6124V50.6133Z" fill="url(#paint0_linear_40_31984)"/>
<path fill-rule="evenodd" clip-rule="evenodd" d="M36.692 36.1014C40.8486 36.1014 44.217 32.6791 44.217 28.4569C44.2176 27.8047 44.1361 27.155 43.9745 26.5236C43.9147 26.7147 43.8514 26.896 43.7855 27.0685C43.7469 27.0818 43.7082 27.0951 43.6695 27.1067L43.6309 27.12L43.6036 27.1289C43.3288 26.4824 42.9672 25.8773 42.5289 25.3307C42.6018 24.9014 42.7152 24.4845 42.8646 24.0845C42.1702 23.0696 41.2419 22.2413 40.1598 21.6711C39.0777 21.1009 37.8745 20.8061 36.6544 20.8121C35.4343 20.8181 34.2341 21.1249 33.1576 21.7058C32.0811 22.2866 31.1608 23.1242 30.4763 24.1458C30.6222 24.5485 30.732 24.9671 30.8014 25.3983C30.3831 25.9319 30.037 26.5196 29.7724 27.1458L29.688 27.1191L29.6485 27.1067C29.6103 27.0943 29.5722 27.0816 29.5342 27.0685C29.4793 26.9261 29.428 26.7824 29.3804 26.6374C29.2376 27.2328 29.1657 27.8433 29.166 28.456C29.166 32.6783 32.5353 36.1005 36.6911 36.1005L36.692 36.1014Z" fill="#FEFEFE"/>
<path fill-rule="evenodd" clip-rule="evenodd" d="M34.4493 45.4951C41.6475 45.4951 47.4835 40.3813 47.4835 34.0729C47.4835 32.224 46.9817 30.4782 46.0924 28.9333C46.0941 29.0222 46.0959 29.1111 46.0959 29.2C46.0959 35.1156 41.3645 39.9111 35.5276 39.9111C31.9333 39.9111 28.7583 38.0924 26.8487 35.3138C26.0288 34.1191 25.3802 32.7582 25.1561 31.2658C24.7739 28.7164 23.6244 26.4302 21.8466 24.7635C23.9592 31.2791 21.416 30.0471 21.416 35.5004C21.416 41.8089 27.2512 45.4951 34.4493 45.4951Z" fill="url(#paint1_linear_40_31984)"/>
<path fill-rule="evenodd" clip-rule="evenodd" d="M24.7462 29.6222C24.1987 27.7378 23.2101 26.0622 21.8462 24.7635C22.0386 25.4637 22.1358 26.1871 22.1353 26.9138C22.1353 27.8951 22.0299 28.8667 21.6397 29.7013C21.4446 30.1191 21.2618 30.5449 21.0957 30.9795C21.3593 31.8862 21.565 33.0062 21.478 34.1573C22.4596 31.6364 23.7039 30.3147 24.7471 29.6222H24.7462Z" fill="#E7EAEF" stroke="#EBECEC" stroke-width="0.2" stroke-miterlimit="22.926"/>
<path fill-rule="evenodd" clip-rule="evenodd" d="M45.0104 19.3867C45.1703 22.6774 44.8469 25.5263 44.1509 27.3565C44.1111 27.078 44.056 26.8021 43.9857 26.5298C44.4058 25.2018 44.6562 23.4454 44.7063 21.4312C43.891 22.1584 43.2626 23.0751 42.8749 24.1023C42.5476 23.6298 42.1684 23.1962 41.7448 22.8098C42.4454 21.3465 43.5894 20.1476 45.0104 19.3876V19.3867ZM28.3099 19.3867C28.1482 22.7085 28.4786 25.5805 29.1887 27.4081L29.2238 27.4205C29.2599 27.1565 29.3091 26.8961 29.3706 26.6418C28.9294 25.3014 28.6649 23.5032 28.614 21.4312C29.4457 22.1731 30.0828 23.1118 30.4682 24.1636C30.7933 23.6836 31.1712 23.2427 31.5948 22.8507C30.8964 21.3689 29.7445 20.1542 28.3099 19.3867Z" fill="url(#paint2_linear_40_31984)"/>
<path fill-rule="evenodd" clip-rule="evenodd" d="M46.0927 28.9751V29.0115L46.0936 29.016V29.0489L46.0945 29.0533V29.2409C46.0945 35.128 41.3587 39.9013 35.5165 39.9013C35.462 39.9013 35.4075 39.9013 35.3522 39.8995H35.346C35.2933 39.8995 35.2397 39.8978 35.1861 39.896H35.1764L35.0173 39.8889H35.0094L34.8513 39.88H34.8407L34.6825 39.8684H34.6808L34.5243 39.8551L34.5112 39.8533C34.461 39.8486 34.4109 39.8436 34.3609 39.8382L34.346 39.8364C34.2961 39.8309 34.2463 39.825 34.1966 39.8187L34.179 39.8169C34.13 39.8107 34.0811 39.8042 34.0322 39.7973L34.0164 39.7947C33.9686 39.7879 33.9209 39.7808 33.8732 39.7733L33.8582 39.7707C33.81 39.7636 33.762 39.7556 33.7141 39.7467L33.6957 39.744L33.555 39.7182L33.5322 39.7138L33.3933 39.6871L33.3714 39.6818C33.3248 39.6729 33.2782 39.6622 33.2317 39.6515L33.2141 39.648L33.0805 39.6169L33.0577 39.6115L32.9258 39.5787L32.8995 39.5724C32.8566 39.5615 32.8139 39.5502 32.7712 39.5387L32.7369 39.5298C32.6958 39.5182 32.6548 39.5063 32.6139 39.4942L32.5813 39.4853C32.5406 39.4737 32.4998 39.4618 32.4592 39.4498L32.4293 39.44L32.3124 39.4027L32.2755 39.3911C32.2371 39.3786 32.1987 39.3659 32.1604 39.3529L32.1253 39.3413L32.0084 39.3004L31.9715 39.2871C31.9328 39.2733 31.8941 39.2594 31.8555 39.2453V39.248C31.8555 42.3769 34.3723 44.912 37.4762 44.912C37.9833 44.912 38.7663 44.7564 39.7206 44.488C44.2938 42.72 47.4838 38.7298 47.4838 34.0898C47.4838 32.2498 46.9812 30.5129 46.091 28.9751H46.0927Z" fill="#F45424"/>
<path fill-rule="evenodd" clip-rule="evenodd" d="M38.0684 50.0303C43.9167 48.3023 48.1885 42.8365 48.1885 36.3609C48.1885 33.6071 47.4151 31.0365 46.0776 28.8587V29.2294C46.0778 29.1446 46.0766 29.0599 46.0741 28.9751L46.075 28.8534L46.0697 28.8445L46.0741 28.9751C46.9626 30.5147 47.4635 32.2551 47.4635 34.0987C47.4635 37.9938 45.2296 41.4311 41.8217 43.4854C41.9637 44.8379 41.6767 46.2011 41.0021 47.3777C40.3275 48.5543 39.3004 49.4833 38.0692 50.0303H38.0684Z" fill="url(#paint3_linear_40_31984)"/>
<path fill-rule="evenodd" clip-rule="evenodd" d="M36.692 36.1014C40.8486 36.1014 44.217 32.6791 44.217 28.4569C44.2176 27.8047 44.1361 27.155 43.9745 26.5236C43.9147 26.7147 43.8514 26.896 43.7855 27.0685C43.7469 27.0818 43.7082 27.0951 43.6695 27.1067L43.6309 27.12L43.6036 27.1289C43.3288 26.4824 42.9672 25.8773 42.5289 25.3307C42.6018 24.9014 42.7152 24.4845 42.8646 24.0845C42.1702 23.0696 41.2419 22.2413 40.1598 21.6711C39.0777 21.1009 37.8745 20.8061 36.6544 20.8121C35.4343 20.8181 34.2341 21.1249 33.1576 21.7058C32.0811 22.2866 31.1608 23.1242 30.4763 24.1458C30.6222 24.5485 30.732 24.9671 30.8014 25.3983C30.3831 25.9319 30.037 26.5196 29.7724 27.1458L29.688 27.1191L29.6485 27.1067C29.6103 27.0943 29.5722 27.0816 29.5342 27.0685C29.4793 26.9261 29.428 26.7824 29.3804 26.6374C29.2376 27.2328 29.1657 27.8433 29.166 28.456C29.166 32.6783 32.5353 36.1005 36.6911 36.1005L36.692 36.1014Z" fill="url(#paint4_radial_40_31984)"/>
<path fill-rule="evenodd" clip-rule="evenodd" d="M42.0392 27.4676C41.9458 27.3167 41.847 27.1694 41.743 27.0258C41.8072 26.6142 41.9047 26.2142 42.0348 25.8302C40.8546 23.9333 38.8949 22.6907 36.6751 22.6907C34.4341 22.6907 32.456 23.9582 31.2793 25.8889C31.4067 26.2756 31.5016 26.6773 31.5614 27.0907C31.4887 27.1934 31.4186 27.298 31.3514 27.4045L35.5783 32.992H37.9036L42.0392 27.4676Z" fill="url(#paint5_linear_40_31984)"/>
<path fill-rule="evenodd" clip-rule="evenodd" d="M42.5523 25.2871C39.9387 25.4942 37.7251 27.0968 36.6855 29.3368C35.6371 27.0782 33.3953 25.4666 30.7536 25.2817L30.7756 25.4124C30.3561 25.9433 30.0088 26.5286 29.743 27.1528C29.7149 27.1441 29.6867 27.1352 29.6587 27.1262L29.6191 27.1137L29.5488 27.0906C29.9531 30.7031 32.9937 33.5102 36.6855 33.5102C40.408 33.5102 43.4688 30.6551 43.8318 27L43.8028 27.0755C43.765 27.0888 43.7263 27.1022 43.6876 27.1137L43.6481 27.1271L43.62 27.136C43.3439 26.4918 42.981 25.8893 42.5417 25.3457L42.5523 25.2871Z" fill="url(#paint6_radial_40_31984)"/>
<path fill-rule="evenodd" clip-rule="evenodd" d="M43.5778 27.7751C43.3605 27.7547 43.1423 27.7443 42.924 27.744C40.1558 27.744 37.7708 29.3582 36.6916 31.68C35.6125 29.3582 33.2275 27.744 30.4584 27.744C30.2387 27.744 30.0199 27.7547 29.8046 27.7751C29.7633 28.0869 29.7425 28.401 29.7422 28.7156C29.7422 32.5805 32.8531 35.7129 36.6916 35.7129C40.5293 35.7129 43.6411 32.5796 43.6411 28.7156C43.6408 28.401 43.6196 28.0868 43.5778 27.7751Z" fill="#FEFEFE"/>
<defs>
<linearGradient id="paint0_linear_40_31984" x1="14.9478" y1="29.0044" x2="49.3682" y2="61.1308" gradientUnits="userSpaceOnUse">
<stop stop-color="#FB9006"/>
<stop offset="1" stop-color="#FB9006"/>
</linearGradient>
<linearGradient id="paint1_linear_40_31984" x1="22.1858" y1="34.416" x2="37.0712" y2="46.0717" gradientUnits="userSpaceOnUse">
<stop stop-color="#FF6E00"/>
<stop offset="1" stop-color="#F87A0A"/>
</linearGradient>
<linearGradient id="paint2_linear_40_31984" x1="36.7709" y1="28.4507" x2="36.7709" y2="20.8925" gradientUnits="userSpaceOnUse">
<stop stop-color="#FD6D47"/>
<stop offset="1" stop-color="#E04922"/>
</linearGradient>
<linearGradient id="paint3_linear_40_31984" x1="46.5293" y1="29.9716" x2="37.8963" y2="49.9554" gradientUnits="userSpaceOnUse">
<stop stop-color="#EF4206"/>
<stop offset="0.329" stop-color="#F57C17"/>
<stop offset="1" stop-color="#FCB729"/>
</linearGradient>
<radialGradient id="paint4_radial_40_31984" cx="0" cy="0" r="1" gradientUnits="userSpaceOnUse" gradientTransform="translate(36.692 28.4569) scale(7.52561 7.64472)">
<stop stop-color="#F3BC57"/>
<stop offset="0.2" stop-color="#F49451"/>
<stop offset="1" stop-color="#F46D4B"/>
</radialGradient>
<linearGradient id="paint5_linear_40_31984" x1="36.6592" y1="27.8409" x2="36.6592" y2="17.9591" gradientUnits="userSpaceOnUse">
<stop stop-color="#FB9006"/>
<stop offset="1" stop-color="#FEFEFE"/>
</linearGradient>
<radialGradient id="paint6_radial_40_31984" cx="0" cy="0" r="1" gradientUnits="userSpaceOnUse" gradientTransform="translate(36.834 31.2915) scale(5.31958 6.05512)">
<stop stop-color="#FED337"/>
<stop offset="1" stop-color="#FC2D27"/>
</radialGradient>
</defs>
</svg>
