<svg width="70" height="70" viewBox="0 0 70 70" fill="none" xmlns="http://www.w3.org/2000/svg">
<rect width="70" height="70" rx="8" fill="white"/>
<path d="M47.6603 25.2173C48.4204 26.2 49.0638 27.2676 49.5776 28.3987L35.0031 39.1428L28.9121 35.3244V30.7307L35.0031 34.5491L47.6603 25.2173Z" fill="#21A038"/>
<path d="M22.6964 35.0001C22.6964 34.794 22.7014 34.5892 22.7114 34.3856L19.0201 34.2047C19.0075 34.4686 19 34.735 19 35.0038C18.9984 37.1045 19.4116 39.1847 20.2158 41.1252C21.02 43.0658 22.1994 44.8285 23.6864 46.3121L26.3048 43.6949C25.1602 42.5548 24.2521 41.1998 23.6329 39.7076C23.0136 38.2155 22.6954 36.6156 22.6964 35.0001Z" fill="url(#paint0_linear_40_31986)"/>
<path d="M34.9996 22.6955C35.2056 22.6955 35.4103 22.7031 35.6139 22.7131L35.7986 19.0203C35.534 19.0078 35.2676 19.0015 34.9996 19.0015C32.898 18.9989 30.8168 19.4115 28.8752 20.2156C26.9336 21.0196 25.17 22.1993 23.6855 23.6869L26.3039 26.3054C27.444 25.1603 28.7991 24.2519 30.2914 23.6324C31.7837 23.0129 33.3837 22.6945 34.9996 22.6955Z" fill="url(#paint1_linear_40_31986)"/>
<path d="M34.9995 47.3046C34.7935 47.3046 34.5887 47.3046 34.3839 47.2883L34.1992 50.9798C34.4647 50.9932 34.7315 50.9999 34.9995 50.9999C37.1002 51.0021 39.1804 50.5892 41.121 49.785C43.0615 48.9807 44.824 47.8008 46.3073 46.3133L43.694 43.696C42.5537 44.8405 41.1987 45.7484 39.7067 46.3677C38.2147 46.9869 36.615 47.3054 34.9995 47.3046Z" fill="url(#paint2_linear_40_31986)"/>
<path d="M41.9366 24.8426L45.0474 22.5496C42.2041 20.247 38.6548 18.9936 34.9961 19V22.6953C37.4736 22.6922 39.8936 23.441 41.9366 24.8426Z" fill="url(#paint3_linear_40_31986)"/>
<path d="M51.0003 35.0002C51.0023 34.0389 50.9182 33.0793 50.749 32.1329L47.3052 34.671C47.3052 34.7804 47.3052 34.8897 47.3052 35.0002C47.3061 36.7194 46.9457 38.4197 46.2475 39.9907C45.5492 41.5617 44.5286 42.9684 43.252 44.1197L45.7359 46.8652C47.3957 45.3667 48.722 43.5361 49.6289 41.4922C50.5359 39.4482 51.0031 37.2364 51.0003 35.0002Z" fill="#21A038"/>
<path d="M35.001 47.3047C33.2818 47.3053 31.5816 46.9448 30.0104 46.2466C28.4394 45.5484 27.0324 44.5279 25.8807 43.2513L23.1367 45.7341C24.6349 47.3943 26.4653 48.7209 28.5092 49.6281C30.5531 50.5352 32.7648 51.0026 35.001 51V47.3047Z" fill="url(#paint4_linear_40_31986)"/>
<path d="M26.7496 25.8804L24.2669 23.135C22.6066 24.6332 21.2798 26.4637 20.3725 28.5077C19.4651 30.5516 18.9975 32.7635 19 34.9999H22.6964C22.6956 33.2808 23.056 31.5805 23.7543 30.0095C24.4525 28.4386 25.473 27.0318 26.7496 25.8804Z" fill="url(#paint5_linear_40_31986)"/>
<defs>
<linearGradient id="paint0_linear_40_31986" x1="24.434" y1="45.851" x2="20.3955" y2="34.1772" gradientUnits="userSpaceOnUse">
<stop offset="0.14" stop-color="#F1E813"/>
<stop offset="0.3" stop-color="#E6E418"/>
<stop offset="0.58" stop-color="#C9DA26"/>
<stop offset="0.89" stop-color="#A2CC39"/>
</linearGradient>
<linearGradient id="paint1_linear_40_31986" x1="24.7409" y1="24.3402" x2="35.1429" y2="20.3764" gradientUnits="userSpaceOnUse">
<stop offset="0.06" stop-color="#0FA7DF"/>
<stop offset="0.54" stop-color="#0098F8"/>
<stop offset="0.92" stop-color="#0290EA"/>
</linearGradient>
<linearGradient id="paint2_linear_40_31986" x1="33.9555" y1="48.7697" x2="45.718" y2="46.1125" gradientUnits="userSpaceOnUse">
<stop offset="0.12" stop-color="#A2CC39"/>
<stop offset="0.28" stop-color="#86C239"/>
<stop offset="0.87" stop-color="#219F38"/>
</linearGradient>
<linearGradient id="paint3_linear_40_31986" x1="34.2272" y1="20.2377" x2="44.2836" y2="23.3409" gradientUnits="userSpaceOnUse">
<stop offset="0.06" stop-color="#0290EA"/>
<stop offset="0.79" stop-color="#0C89CA"/>
</linearGradient>
<linearGradient id="paint4_linear_40_31986" x1="24.0639" y1="45.2843" x2="35.01" y2="49.375" gradientUnits="userSpaceOnUse">
<stop offset="0.13" stop-color="#F1E813"/>
<stop offset="0.3" stop-color="#EAE616"/>
<stop offset="0.53" stop-color="#D8DF1F"/>
<stop offset="0.8" stop-color="#BAD52D"/>
<stop offset="0.98" stop-color="#A2CC39"/>
</linearGradient>
<linearGradient id="paint5_linear_40_31986" x1="20.377" y1="35.4472" x2="24.7711" y2="24.0172" gradientUnits="userSpaceOnUse">
<stop offset="0.07" stop-color="#A2CC39"/>
<stop offset="0.26" stop-color="#81C45E"/>
<stop offset="0.92" stop-color="#0FA7DF"/>
</linearGradient>
</defs>
</svg>
