<svg width="70" height="70" viewBox="0 0 70 70" fill="none" xmlns="http://www.w3.org/2000/svg">
<rect width="70" height="70" rx="8" fill="white"/>
<g clip-path="url(#clip0_40_31985)">
<path d="M34.5104 51.0058L40.9504 31.3516H28.0703L34.5103 51.0058H34.5104Z" fill="#E24329"/>
<path d="M34.5104 51.0057L28.0703 31.3514H19.0449L34.5104 51.0057Z" fill="#FC6D26"/>
<path d="M19.0457 31.3514L17.0887 37.3243C17.0017 37.5899 17.0017 37.8759 17.0887 38.1414C17.1757 38.407 17.3452 38.6384 17.573 38.8025L34.5112 51.0059L19.0456 31.3516L19.0457 31.3514Z" fill="#FCA326"/>
<path d="M19.0449 31.3515H28.0703L24.1917 19.5138C23.9921 18.9047 23.1231 18.9048 22.9236 19.5138L19.0449 31.3515Z" fill="#E24329"/>
<path d="M34.5099 51.0057L40.9499 31.3514H49.9754L34.5098 51.0057H34.5099Z" fill="#FC6D26"/>
<path d="M49.9752 31.3514L51.9322 37.3243C52.0192 37.5899 52.0192 37.8759 51.9322 38.1414C51.8452 38.407 51.6756 38.6384 51.4478 38.8025L34.5098 51.0059L49.9752 31.3516V31.3514Z" fill="#FCA326"/>
<path d="M49.9767 31.3515H40.9512L44.8299 19.5138C45.0295 18.9047 45.8985 18.9048 46.0979 19.5138L49.9767 31.3515Z" fill="#E24329"/>
</g>
<defs>
<clipPath id="clip0_40_31985">
<rect width="35" height="32" fill="white" transform="translate(17 19)"/>
</clipPath>
</defs>
</svg>
