<svg width="70" height="70" viewBox="0 0 70 70" fill="none" xmlns="http://www.w3.org/2000/svg">
<rect width="70" height="70" rx="8" fill="white"/>
<g clip-path="url(#clip0_40_31989)">
<path fill-rule="evenodd" clip-rule="evenodd" d="M46.2207 44H50.7689L52.7229 38.338L54.7547 36.6025L56.3551 41.723C56.8501 43.3056 57.3596 44 58.4709 44H61.9531L58.3608 33.9522L66.9999 26H61.4207L56.1764 31.6621C55.5655 32.3213 54.9476 32.97 54.3279 33.7449H54.2751L56.8937 26H52.3452L46.2207 44Z" fill="#1AB248"/>
<path fill-rule="evenodd" clip-rule="evenodd" d="M46.0238 26.0007C47.4501 26.0009 48.8336 26.0012 49.9923 26.0013L49.0534 28.9732C48.7584 29.9069 48.0095 30.3536 46.3588 30.3536C43.4928 30.3536 39.2521 30.3531 36.3858 30.3526L37.3246 27.3807C37.6196 26.4465 38.3684 26 40.0191 26C41.7265 26 43.9218 26.0004 46.0238 26.0007ZM37.7043 32.8233C40.5702 32.8233 44.8112 32.8238 47.6774 32.8246L46.7386 35.7963C46.4436 36.7303 45.6947 37.1768 44.0439 37.1768C41.178 37.1768 36.9372 37.1762 34.0709 37.1755L35.0097 34.204C35.3047 33.2699 36.0535 32.8233 37.7043 32.8233ZM45.2488 39.6474C42.3827 39.6469 38.1419 39.6464 35.2759 39.6464C33.625 39.6464 32.8763 40.0931 32.5814 41.0266L31.6426 43.9988C34.5089 43.9991 38.7496 44 41.6157 44C43.2663 44 44.0152 43.5532 44.3102 42.6192L45.2488 39.6474Z" fill="#1AB248"/>
<path fill-rule="evenodd" clip-rule="evenodd" d="M25.5982 30.3354L28.0391 30.3365C30.1188 30.337 29.6441 32.9294 28.5916 35.456C27.6641 37.6829 26.0205 39.648 24.0596 39.6478L19.9905 39.6473C18.3674 39.6473 17.6191 40.094 17.3035 41.0274L16.2988 43.9995L19.2826 44L22.1994 43.9757C24.786 43.9544 26.9036 43.7678 29.38 41.5466C31.997 39.2 35.0483 33.1041 34.5255 29.5783C34.116 26.8154 32.6286 26.0013 29.0266 26.001L22.4629 26L18.6412 37.1639L21.0694 37.167C22.5146 37.1687 23.2399 37.1868 24.0087 35.1221L25.5982 30.3354Z" fill="#1AB248"/>
<path fill-rule="evenodd" clip-rule="evenodd" d="M14.377 30.3509L12.5412 30.3515C8.86352 30.3533 5.71212 39.6493 10.0605 39.6478L12.8545 39.6473C14.4659 39.6473 15.6621 40.2346 15.1324 41.8182L14.4026 43.9995L11.4393 44L9.02901 43.9757C5.94549 43.945 3.95569 42.4278 3.23924 40.1241C2.46393 37.6312 3.55853 32.4316 6.73548 29.1008C8.57885 27.1685 11.1323 26.0013 14.4061 26.001L20.4545 26L19.509 28.7243C18.8982 30.4845 17.6501 30.3533 16.9379 30.353L14.377 30.3509Z" fill="#1AB248"/>
</g>
<defs>
<clipPath id="clip0_40_31989">
<rect width="64" height="18" fill="white" transform="translate(3 26)"/>
</clipPath>
</defs>
</svg>
