<svg width="70" height="70" viewBox="0 0 70 70" fill="none" xmlns="http://www.w3.org/2000/svg">
<rect width="70" height="70" rx="8" fill="white"/>
<path d="M38.0477 19.0109L48 19L31.3028 35.6269L26.9512 39.9381L22 34.9992L38.0477 19.0109ZM37.9551 33.8568C38.0843 33.6868 38.3219 33.7706 38.5022 33.7487L47.9915 33.7512L39.3431 42.359L34.3663 37.4311L37.9551 33.8568Z" fill="#44D1FD"/>
<path d="M29.4062 42.3676L34.3672 37.4312L39.3439 42.3591L39.3646 42.381L34.3684 47.3126L29.4062 42.3676Z" fill="#1FBCFD"/>
<path d="M34.3672 47.3125L39.3634 42.3809L47.9948 50.9887C44.7435 50.996 41.4935 50.9863 38.2435 50.9936C38.0583 51.0349 37.9438 50.8661 37.8256 50.7617L34.3672 47.3125Z" fill="#08589C"/>
</svg>
