<svg width="70" height="70" viewBox="0 0 70 70" fill="none" xmlns="http://www.w3.org/2000/svg">
<rect width="70" height="70" rx="8" fill="white"/>
<path fill-rule="evenodd" clip-rule="evenodd" d="M49.9831 26.2392C49.9942 26.2819 49.9999 26.3259 50 26.3701V33.2388C50 33.327 49.9775 33.4135 49.9349 33.4898C49.8923 33.5661 49.8309 33.6294 49.7571 33.6732L44.1932 36.9924V43.5713C44.1932 43.7503 44.1014 43.9156 43.9515 44.0057L32.3374 50.9333C32.3108 50.949 32.2818 50.959 32.2528 50.9696C32.2419 50.9734 32.2316 50.9803 32.2202 50.9834C32.139 51.0055 32.0536 51.0055 31.9724 50.9834C31.9592 50.9796 31.9471 50.9721 31.9344 50.9671C31.9078 50.9571 31.88 50.9483 31.8546 50.9333L20.2429 44.0057C20.1691 43.9618 20.1078 43.8986 20.0652 43.8223C20.0225 43.746 20.0001 43.6594 20 43.5713V22.9651C20 22.9201 20.006 22.8762 20.0169 22.8337C20.0205 22.8193 20.029 22.8061 20.0338 22.7917C20.0429 22.7654 20.0514 22.7385 20.0646 22.7141C20.0737 22.6978 20.087 22.6847 20.0979 22.6697C20.1118 22.6496 20.1245 22.629 20.1408 22.6114C20.1547 22.597 20.1728 22.5864 20.1885 22.5739C20.206 22.5589 20.2217 22.5426 20.2417 22.5307H20.2423L26.0485 19.0669C26.122 19.0231 26.2053 19 26.2901 19C26.3749 19 26.4583 19.0231 26.5318 19.0669L32.338 22.5307H32.3392C32.3585 22.5432 32.3748 22.5589 32.3924 22.5733C32.4081 22.5858 32.4256 22.597 32.4395 22.6108C32.4564 22.629 32.4685 22.6496 32.483 22.6697C32.4933 22.6847 32.5071 22.6978 32.5156 22.7141C32.5295 22.7391 32.5374 22.7654 32.547 22.7917C32.5519 22.8061 32.5603 22.8193 32.5639 22.8343C32.5751 22.877 32.5808 22.921 32.5809 22.9651V35.8355L37.4191 32.9489V26.3695C37.4191 26.3256 37.4252 26.2812 37.4361 26.2392C37.4403 26.2242 37.4481 26.2111 37.453 26.1967C37.4626 26.1704 37.4711 26.1435 37.4844 26.119C37.4935 26.1028 37.5067 26.0896 37.517 26.0746C37.5315 26.0546 37.5436 26.0339 37.5605 26.0164C37.5744 26.002 37.5919 25.9913 37.6076 25.9788C37.6258 25.9638 37.6415 25.9475 37.6608 25.9356H37.6614L43.4682 22.4718C43.5417 22.4279 43.625 22.4048 43.7099 22.4048C43.7947 22.4048 43.878 22.4279 43.9515 22.4718L49.7577 25.9356C49.7783 25.9481 49.794 25.9638 49.8121 25.9782C49.8272 25.9907 49.8447 26.002 49.8586 26.0157C49.8755 26.0339 49.8876 26.0546 49.9021 26.0746C49.913 26.0896 49.9263 26.1028 49.9347 26.119C49.9486 26.1435 49.9565 26.1704 49.9662 26.1967C49.9716 26.2111 49.9795 26.2242 49.9831 26.2392ZM49.0321 32.9489V27.2371L47.0002 28.4491L44.1932 30.1237V35.8355L49.0327 32.9489H49.0321ZM43.2259 43.2814V37.5659L40.4648 39.1998L32.5803 43.8624V49.6318L43.2259 43.2814ZM20.9679 23.8322V43.2814L31.6124 49.6312V43.863L26.0515 40.6021L26.0497 40.6008L26.0472 40.5996C26.0285 40.5883 26.0128 40.572 25.9953 40.5582C25.9802 40.5457 25.9627 40.5357 25.9494 40.5219L25.9482 40.5201C25.9325 40.5044 25.9216 40.485 25.9083 40.4675C25.8962 40.4506 25.8817 40.4362 25.872 40.4186L25.8714 40.4168C25.8606 40.398 25.8539 40.3754 25.8461 40.3542C25.8382 40.3354 25.8279 40.3178 25.8231 40.2978V40.2972C25.8171 40.2734 25.8158 40.2484 25.8134 40.2239C25.811 40.2052 25.8062 40.1864 25.8062 40.1676V40.1664V26.7188L22.9998 25.0435L20.9679 23.8328V23.8322ZM26.2907 20.0798L21.4531 22.9651L26.2895 25.8505L31.1266 22.9645L26.2895 20.0798H26.2907ZM28.8065 38.0867L31.613 36.4127V23.8322L29.5811 25.0442L26.7741 26.7188V39.2993L28.8065 38.0867ZM43.7099 23.4847L38.8728 26.3701L43.7099 29.2554L48.5463 26.3695L43.7099 23.4847ZM43.2259 30.1237L40.4189 28.4491L38.387 27.2371V32.9489L41.1935 34.6229L43.2259 35.8355V30.1237ZM32.0957 42.9953L39.1906 38.7985L42.7371 36.7013L37.9037 33.8179L32.3386 37.1377L27.2665 40.1632L32.0957 42.9953Z" fill="#FF2D20"/>
</svg>
