<svg width="70" height="70" viewBox="0 0 70 70" fill="none" xmlns="http://www.w3.org/2000/svg">
<rect width="70" height="70" rx="8" fill="white"/>
<path d="M29.2509 51C32.1483 51 34.4999 48.6107 34.4999 45.6667V40.3334H29.2509C26.3535 40.3334 24.002 42.7227 24.002 45.6667C24.002 48.6107 26.3535 51 29.2509 51Z" fill="#0ACF83"/>
<path d="M24.002 34.9999C24.002 32.056 26.3535 29.6666 29.2509 29.6666H34.4999V40.3333H29.2509C26.3535 40.3333 24.002 37.9439 24.002 34.9999Z" fill="#A259FF"/>
<path d="M24.002 24.3333C24.002 21.3893 26.3535 19 29.2509 19H34.4999V29.6667H29.2509C26.3535 29.6667 24.002 27.2773 24.002 24.3333Z" fill="#F24E1E"/>
<path d="M34.5 19H39.749C42.6464 19 44.9979 21.3893 44.9979 24.3333C44.9979 27.2773 42.6464 29.6667 39.749 29.6667H34.5V19Z" fill="#FF7262"/>
<path d="M44.9979 34.9999C44.9979 37.9439 42.6464 40.3333 39.749 40.3333C36.8515 40.3333 34.5 37.9439 34.5 34.9999C34.5 32.056 36.8515 29.6666 39.749 29.6666C42.6464 29.6666 44.9979 32.056 44.9979 34.9999Z" fill="#1ABCFE"/>
</svg>
